<svg width="23" height="23" viewBox="0 0 23 23" fill="none" xmlns="http://www.w3.org/2000/svg">
<g id="Frame">
<path id="Vector" d="M8.625 15.0938C8.625 14.9031 8.70073 14.7203 8.83552 14.5855C8.97031 14.4507 9.15313 14.375 9.34375 14.375H13.6562C13.8469 14.375 14.0297 14.4507 14.1645 14.5855C14.2993 14.7203 14.375 14.9031 14.375 15.0938C14.375 15.2844 14.2993 15.4672 14.1645 15.602C14.0297 15.7368 13.8469 15.8125 13.6562 15.8125H9.34375C9.15313 15.8125 8.97031 15.7368 8.83552 15.602C8.70073 15.4672 8.625 15.2844 8.625 15.0938ZM5.75 10.7812C5.75 10.5906 5.82573 10.4078 5.96052 10.273C6.09531 10.1382 6.27813 10.0625 6.46875 10.0625H16.5312C16.7219 10.0625 16.9047 10.1382 17.0395 10.273C17.1743 10.4078 17.25 10.5906 17.25 10.7812C17.25 10.9719 17.1743 11.1547 17.0395 11.2895C16.9047 11.4243 16.7219 11.5 16.5312 11.5H6.46875C6.27813 11.5 6.09531 11.4243 5.96052 11.2895C5.82573 11.1547 5.75 10.9719 5.75 10.7812ZM2.875 6.46875C2.875 6.27813 2.95073 6.09531 3.08552 5.96052C3.22031 5.82573 3.40313 5.75 3.59375 5.75H19.4062C19.5969 5.75 19.7797 5.82573 19.9145 5.96052C20.0493 6.09531 20.125 6.27813 20.125 6.46875C20.125 6.65937 20.0493 6.84219 19.9145 6.97698C19.7797 7.11177 19.5969 7.1875 19.4062 7.1875H3.59375C3.40313 7.1875 3.22031 7.11177 3.08552 6.97698C2.95073 6.84219 2.875 6.65937 2.875 6.46875Z" fill="white"/>
</g>
</svg>
