<svg width="100" height="40" viewBox="0 0 100 40" fill="none" xmlns="http://www.w3.org/2000/svg">
<rect x="0.5" y="15.6667" width="7.66667" height="7.66667" fill="#92E9F6"/>
<rect x="23.5" y="23.3335" width="7.66667" height="7.66667" transform="rotate(180 23.5 23.3335)" fill="#6941C6"/>
<path d="M8.16663 15.6669L15.8333 8.00024V15.6669L8.16663 23.3336V15.6669Z" fill="#BBF0FB"/>
<path d="M15.8334 23.3336L8.16671 31.0002L8.16671 23.3336L15.8334 15.6669L15.8334 23.3336Z" fill="#92E9F6"/>
<path d="M0.5 15.6668L15.8333 0.333496V8.00016L8.16667 15.6668H0.5Z" fill="#7F56D9"/>
<path d="M23.5 23.3337L8.16667 38.667L8.16667 31.0003L15.8333 23.3337L23.5 23.3337Z" fill="#BBF0FB"/>
<path d="M28.9062 8.70068C28.9062 7.9585 29.0898 7.28271 29.457 6.67334C29.832 6.06396 30.332 5.57959 30.957 5.22021C31.5898 4.85303 32.2852 4.66943 33.043 4.66943H41.668V7.13037H33.043C32.5898 7.13037 32.1992 7.29053 31.8711 7.61084C31.543 7.93115 31.3789 8.31787 31.3789 8.771V9.91943C31.3789 10.3335 31.543 10.689 31.8711 10.9858C32.1992 11.2827 32.5898 11.4312 33.043 11.4312H38.3516C39.1172 11.4312 39.8125 11.6147 40.4375 11.9819C41.0625 12.3413 41.5586 12.8296 41.9258 13.4468C42.3008 14.0562 42.4883 14.7319 42.4883 15.4741V17.2905C42.4883 18.0327 42.3008 18.7124 41.9258 19.3296C41.5586 19.939 41.0625 20.4272 40.4375 20.7944C39.8125 21.1538 39.1172 21.3335 38.3516 21.3335H28.918V18.8608H38.3516C38.8125 18.8608 39.2031 18.7085 39.5234 18.4038C39.8516 18.0913 40.0156 17.7163 40.0156 17.2788V15.4858C40.0156 15.0483 39.8516 14.6733 39.5234 14.3608C39.2031 14.0483 38.8125 13.8921 38.3516 13.8921H33.043C32.2852 13.8921 31.5898 13.7163 30.957 13.3647C30.332 13.0054 29.832 12.5249 29.457 11.9233C29.0898 11.3218 28.9062 10.6577 28.9062 9.93115V8.70068ZM45.1953 13.5522C45.1953 12.7476 45.3906 12.0171 45.7812 11.3608C46.1797 10.7046 46.7109 10.1812 47.375 9.79053C48.0391 9.39209 48.7734 9.19287 49.5781 9.19287H56.3516V21.3335H53.8789V11.6655H49.5781C49.0547 11.6655 48.6055 11.853 48.2305 12.228C47.8555 12.5952 47.668 13.0444 47.668 13.5757V16.9272C47.668 17.4585 47.8555 17.9155 48.2305 18.2983C48.6055 18.6733 49.0547 18.8608 49.5781 18.8608H52.4727V21.3335H49.5781C48.7734 21.3335 48.0391 21.1382 47.375 20.7476C46.7109 20.3491 46.1797 19.8179 45.7812 19.1538C45.3906 18.4897 45.1953 17.7554 45.1953 16.9507V13.5522ZM59.1641 4.66943H61.6367V9.19287H65.457C66.3008 9.19287 67.0664 9.39209 67.7539 9.79053C68.4492 10.1812 69 10.7085 69.4062 11.3726C69.8203 12.0288 70.0273 12.7593 70.0273 13.564V21.3335H67.5547V13.5991C67.5547 13.0835 67.3438 12.6343 66.9219 12.2515C66.5078 11.8608 66.0195 11.6655 65.457 11.6655H61.6367V21.3335H59.1641V4.66943ZM72.7344 13.5522C72.7344 12.7476 72.9297 12.0171 73.3203 11.3608C73.7188 10.7046 74.25 10.1812 74.9141 9.79053C75.5781 9.39209 76.3125 9.19287 77.1172 9.19287H83.8906V21.3335H81.418V11.6655H77.1172C76.5938 11.6655 76.1445 11.853 75.7695 12.228C75.3945 12.5952 75.207 13.0444 75.207 13.5757V16.9272C75.207 17.4585 75.3945 17.9155 75.7695 18.2983C76.1445 18.6733 76.5938 18.8608 77.1172 18.8608H80.0117V21.3335H77.1172C76.3125 21.3335 75.5781 21.1382 74.9141 20.7476C74.25 20.3491 73.7188 19.8179 73.3203 19.1538C72.9297 18.4897 72.7344 17.7554 72.7344 16.9507V13.5522ZM86.7031 12.5913C86.7031 11.9663 86.8594 11.396 87.1719 10.8804C87.4922 10.3647 87.9141 9.95459 88.4375 9.6499C88.9688 9.34521 89.5547 9.19287 90.1953 9.19287H92.9023V11.6538H90.1953C89.9141 11.6538 89.6719 11.7515 89.4688 11.9468C89.2734 12.1343 89.1758 12.3647 89.1758 12.6382V21.3335H86.7031V12.5913ZM94.8594 5.88818C94.8594 5.46631 95.0078 5.10693 95.3047 4.81006C95.6016 4.51318 95.9609 4.36475 96.3828 4.36475C96.8047 4.36475 97.1641 4.51318 97.4609 4.81006C97.7578 5.10693 97.9062 5.46631 97.9062 5.88818C97.9062 6.31006 97.7578 6.66943 97.4609 6.96631C97.1641 7.26318 96.8047 7.41162 96.3828 7.41162C95.9609 7.41162 95.6016 7.26318 95.3047 6.96631C95.0078 6.66943 94.8594 6.31006 94.8594 5.88818ZM95.1406 9.19287H97.625V21.3335H95.1406V9.19287Z" fill="#FBFBFB"/>
<path d="M58.72 28.9375C58.656 29.1295 58.572 29.3815 58.468 29.6935C58.372 29.9975 58.264 30.3335 58.144 30.7015C58.024 31.0695 57.9 31.4615 57.772 31.8775C57.644 32.2855 57.512 32.6855 57.376 33.0775C57.248 33.4695 57.12 33.8455 56.992 34.2055C56.864 34.5575 56.748 34.8655 56.644 35.1295C56.612 35.1935 56.544 35.2455 56.44 35.2855C56.344 35.3175 56.188 35.3335 55.972 35.3335C55.836 35.3335 55.696 35.3255 55.552 35.3095C55.408 35.2935 55.272 35.2615 55.144 35.2135C55.024 35.1655 54.916 35.1015 54.82 35.0215C54.732 34.9415 54.664 34.8415 54.616 34.7215C54.496 34.3135 54.38 33.8615 54.268 33.3655C54.164 32.8615 54.06 32.3495 53.956 31.8295C53.852 31.3095 53.748 30.8015 53.644 30.3055C53.548 29.8015 53.448 29.3455 53.344 28.9375C53.344 29.0495 53.34 29.2415 53.332 29.5135C53.324 29.7855 53.316 30.1015 53.308 30.4615C53.3 30.8215 53.288 31.2095 53.272 31.6255C53.264 32.0415 53.256 32.4495 53.248 32.8495C53.24 33.2415 53.232 33.6095 53.224 33.9535C53.216 34.2895 53.212 34.5655 53.212 34.7815C53.212 35.0215 53.196 35.1735 53.164 35.2375C53.14 35.3015 53.092 35.3335 53.02 35.3335H52.36C51.904 35.3335 51.58 35.2455 51.388 35.0695C51.204 34.8855 51.112 34.6175 51.112 34.2655C51.112 34.1695 51.116 34.0095 51.124 33.7855C51.14 33.5535 51.16 33.2815 51.184 32.9695C51.208 32.6575 51.232 32.3175 51.256 31.9495C51.288 31.5735 51.32 31.1935 51.352 30.8095C51.392 30.2895 51.424 29.8575 51.448 29.5135C51.48 29.1615 51.504 28.8695 51.52 28.6375C51.536 28.4055 51.548 28.2175 51.556 28.0735C51.572 27.9295 51.58 27.8015 51.58 27.6895C51.588 27.5775 51.592 27.4735 51.592 27.3775C51.6 27.2735 51.604 27.1455 51.604 26.9935C51.604 26.9295 51.628 26.8855 51.676 26.8615C51.724 26.8295 51.768 26.8135 51.808 26.8135H53.488C53.8 26.8135 54.056 26.8655 54.256 26.9695C54.456 27.0655 54.62 27.2175 54.748 27.4255C54.876 27.6335 54.98 27.9055 55.06 28.2415C55.14 28.5695 55.212 28.9615 55.276 29.4175C55.348 29.8735 55.424 30.4015 55.504 31.0015C55.592 31.5935 55.704 32.2615 55.84 33.0055C55.968 32.5095 56.076 32.0975 56.164 31.7695C56.252 31.4415 56.324 31.1695 56.38 30.9535C56.444 30.7295 56.496 30.5455 56.536 30.4015C56.576 30.2575 56.612 30.1255 56.644 30.0055C56.676 29.8775 56.712 29.7415 56.752 29.5975C56.792 29.4535 56.84 29.2735 56.896 29.0575C56.952 28.8415 57.02 28.5735 57.1 28.2535C57.188 27.9255 57.296 27.5135 57.424 27.0175C57.44 26.9695 57.468 26.9255 57.508 26.8855C57.548 26.8375 57.62 26.8135 57.724 26.8135H59.596C59.852 26.8135 60.056 26.8415 60.208 26.8975C60.368 26.9455 60.492 27.0175 60.58 27.1135C60.668 27.2095 60.728 27.3295 60.76 27.4735C60.792 27.6095 60.808 27.7695 60.808 27.9535C60.808 28.1375 60.796 28.4375 60.772 28.8535C60.756 29.2615 60.728 29.7255 60.688 30.2455C60.656 30.7575 60.62 31.2895 60.58 31.8415C60.548 32.3935 60.512 32.9055 60.472 33.3775C60.44 33.8495 60.412 34.2495 60.388 34.5775C60.364 34.9055 60.348 35.0975 60.34 35.1535C60.332 35.2175 60.316 35.2655 60.292 35.2975C60.268 35.3215 60.22 35.3335 60.148 35.3335H59.488C59.032 35.3335 58.708 35.2455 58.516 35.0695C58.332 34.8855 58.24 34.6495 58.24 34.3615C58.24 34.2735 58.248 34.1135 58.264 33.8815C58.288 33.6495 58.316 33.3775 58.348 33.0655C58.38 32.7535 58.416 32.4135 58.456 32.0455C58.496 31.6695 58.532 31.2975 58.564 30.9295C58.596 30.5615 58.624 30.2055 58.648 29.8615C58.68 29.5095 58.704 29.2015 58.72 28.9375ZM64.6038 35.4535C64.2518 35.4535 63.8998 35.4095 63.5478 35.3215C63.2038 35.2335 62.8918 35.0815 62.6118 34.8655C62.3398 34.6495 62.1158 34.3615 61.9398 34.0015C61.7638 33.6415 61.6758 33.1895 61.6758 32.6455C61.6758 32.4455 61.6918 32.2055 61.7238 31.9255C61.7558 31.6455 61.8158 31.3575 61.9038 31.0615C61.9998 30.7655 62.1278 30.4735 62.2878 30.1855C62.4558 29.8895 62.6718 29.6255 62.9358 29.3935C63.1998 29.1615 63.5198 28.9735 63.8958 28.8295C64.2718 28.6855 64.7198 28.6135 65.2398 28.6135C65.6558 28.6135 66.0078 28.6615 66.2958 28.7575C66.5838 28.8535 66.8158 28.9855 66.9918 29.1535C67.1678 29.3135 67.2958 29.5015 67.3758 29.7175C67.4558 29.9335 67.4958 30.1655 67.4958 30.4135C67.4958 30.7815 67.4198 31.0935 67.2678 31.3495C67.1238 31.6055 66.9318 31.8215 66.6918 31.9975C66.4598 32.1655 66.1998 32.2975 65.9118 32.3935C65.6238 32.4895 65.3398 32.5655 65.0598 32.6215C64.7798 32.6695 64.5198 32.7015 64.2798 32.7175C64.0478 32.7255 63.8678 32.7295 63.7398 32.7295C63.7398 32.8815 63.7598 33.0335 63.7998 33.1855C63.8478 33.3295 63.9158 33.4575 64.0038 33.5695C64.0918 33.6815 64.2078 33.7735 64.3518 33.8455C64.4958 33.9175 64.6718 33.9535 64.8798 33.9535C65.0878 33.9535 65.2478 33.9215 65.3598 33.8575C65.4798 33.7855 65.5758 33.7095 65.6478 33.6295C65.7198 33.5415 65.7798 33.4655 65.8278 33.4015C65.8838 33.3295 65.9558 33.2935 66.0438 33.2935C66.0838 33.2935 66.1518 33.3055 66.2478 33.3295C66.3518 33.3455 66.4558 33.3855 66.5598 33.4495C66.6638 33.5135 66.7558 33.6015 66.8358 33.7135C66.9158 33.8255 66.9558 33.9695 66.9558 34.1455C66.9558 34.3775 66.8838 34.5775 66.7398 34.7455C66.5958 34.9135 66.4078 35.0495 66.1758 35.1535C65.9518 35.2575 65.6998 35.3335 65.4198 35.3815C65.1398 35.4295 64.8678 35.4535 64.6038 35.4535ZM64.8318 30.2095C64.6558 30.2095 64.5038 30.2615 64.3758 30.3655C64.2558 30.4615 64.1518 30.5855 64.0638 30.7375C63.9838 30.8895 63.9198 31.0575 63.8718 31.2415C63.8318 31.4255 63.7998 31.6015 63.7758 31.7695C64.2718 31.7615 64.6718 31.6775 64.9758 31.5175C65.2878 31.3575 65.4438 31.1295 65.4438 30.8335C65.4438 30.6735 65.3918 30.5295 65.2878 30.4015C65.1918 30.2735 65.0398 30.2095 64.8318 30.2095ZM70.2946 33.1735C70.2706 33.5415 70.2426 33.8935 70.2106 34.2295C70.1786 34.5575 70.1546 34.8455 70.1386 35.0935C70.1306 35.1895 70.1106 35.2535 70.0786 35.2855C70.0466 35.3175 69.9786 35.3335 69.8746 35.3335H69.4426C69.1946 35.3335 68.9906 35.3095 68.8306 35.2615C68.6786 35.2055 68.5546 35.1295 68.4586 35.0335C68.3706 34.9375 68.3066 34.8215 68.2666 34.6855C68.2346 34.5415 68.2186 34.3775 68.2186 34.1935C68.2186 34.0735 68.2226 33.9055 68.2306 33.6895C68.2466 33.4655 68.2706 33.1615 68.3026 32.7775C68.3346 32.3855 68.3706 31.8935 68.4106 31.3015C68.4586 30.7015 68.5146 29.9615 68.5786 29.0815C68.5866 28.9055 68.6066 28.8015 68.6386 28.7695C68.6626 28.7455 68.7266 28.7335 68.8306 28.7335H69.2986C69.5386 28.7335 69.7346 28.7615 69.8866 28.8175C70.0386 28.8735 70.1626 28.9455 70.2586 29.0335C70.3546 29.1215 70.4226 29.2255 70.4626 29.3455C70.5026 29.4655 70.5266 29.5895 70.5346 29.7175C70.7666 29.2855 71.0306 28.9935 71.3266 28.8415C71.6226 28.6895 71.9706 28.6135 72.3706 28.6135C72.5866 28.6135 72.7946 28.6335 72.9946 28.6735C73.1946 28.7135 73.3746 28.7815 73.5346 28.8775C73.6946 28.9735 73.8306 29.1015 73.9426 29.2615C74.0546 29.4135 74.1346 29.6095 74.1826 29.8495C74.4306 29.3855 74.7026 29.0655 74.9986 28.8895C75.2946 28.7055 75.6666 28.6135 76.1146 28.6135C76.3626 28.6135 76.5986 28.6415 76.8226 28.6975C77.0546 28.7455 77.2546 28.8335 77.4226 28.9615C77.5906 29.0895 77.7226 29.2655 77.8186 29.4895C77.9226 29.7055 77.9746 29.9775 77.9746 30.3055C77.9746 30.5535 77.9626 30.8575 77.9386 31.2175C77.9146 31.5775 77.8866 31.9695 77.8546 32.3935C77.8226 32.8095 77.7866 33.2415 77.7466 33.6895C77.7066 34.1295 77.6746 34.5535 77.6506 34.9615C77.6426 35.0495 77.6346 35.1175 77.6266 35.1655C77.6186 35.2135 77.6026 35.2495 77.5786 35.2735C77.5626 35.2975 77.5346 35.3135 77.4946 35.3215C77.4546 35.3295 77.3986 35.3335 77.3266 35.3335H76.9426C76.6866 35.3335 76.4786 35.3095 76.3186 35.2615C76.1586 35.2135 76.0346 35.1455 75.9466 35.0575C75.8586 34.9695 75.7946 34.8615 75.7546 34.7335C75.7226 34.5975 75.7066 34.4455 75.7066 34.2775C75.7066 34.1735 75.7106 34.0255 75.7186 33.8335C75.7346 33.6415 75.7506 33.4335 75.7666 33.2095C75.7906 32.9855 75.8106 32.7535 75.8266 32.5135C75.8506 32.2735 75.8706 32.0535 75.8866 31.8535C75.9106 31.6455 75.9266 31.4655 75.9346 31.3135C75.9506 31.1615 75.9586 31.0615 75.9586 31.0135C75.9586 30.8055 75.9146 30.6215 75.8266 30.4615C75.7466 30.3015 75.5866 30.2215 75.3466 30.2215C75.1386 30.2215 74.9586 30.2895 74.8066 30.4255C74.6546 30.5615 74.5266 30.7495 74.4226 30.9895C74.3186 31.2295 74.2346 31.5135 74.1706 31.8415C74.1066 32.1695 74.0626 32.5255 74.0386 32.9095C74.0226 33.1575 74.0026 33.4415 73.9786 33.7615C73.9546 34.0815 73.9266 34.4815 73.8946 34.9615C73.8866 35.0495 73.8786 35.1175 73.8706 35.1655C73.8626 35.2135 73.8466 35.2495 73.8226 35.2735C73.8066 35.2975 73.7786 35.3135 73.7386 35.3215C73.6986 35.3295 73.6426 35.3335 73.5706 35.3335H73.1866C72.9306 35.3335 72.7226 35.3095 72.5626 35.2615C72.4026 35.2135 72.2786 35.1455 72.1906 35.0575C72.1026 34.9695 72.0386 34.8615 71.9986 34.7335C71.9666 34.5975 71.9506 34.4455 71.9506 34.2775C71.9506 34.1175 71.9626 33.8855 71.9866 33.5815C72.0186 33.2695 72.0466 32.9495 72.0706 32.6215C72.1026 32.2855 72.1306 31.9695 72.1546 31.6735C72.1866 31.3695 72.2026 31.1495 72.2026 31.0135C72.2026 30.8055 72.1586 30.6215 72.0706 30.4615C71.9906 30.3015 71.8306 30.2215 71.5906 30.2215C71.3746 30.2215 71.1906 30.3015 71.0386 30.4615C70.8866 30.6215 70.7586 30.8375 70.6546 31.1095C70.5586 31.3735 70.4786 31.6855 70.4146 32.0455C70.3586 32.4055 70.3186 32.7815 70.2946 33.1735ZM81.7347 35.4535C81.1827 35.4535 80.7227 35.3775 80.3547 35.2255C79.9947 35.0655 79.7067 34.8495 79.4907 34.5775C79.2747 34.3055 79.1227 33.9895 79.0347 33.6295C78.9467 33.2615 78.9027 32.8695 78.9027 32.4535C78.9027 31.9735 78.9587 31.5055 79.0707 31.0495C79.1907 30.5855 79.3907 30.1735 79.6707 29.8135C79.9507 29.4535 80.3187 29.1655 80.7747 28.9495C81.2387 28.7255 81.8147 28.6135 82.5027 28.6135C83.5107 28.6135 84.2307 28.8615 84.6627 29.3575C85.1027 29.8455 85.3227 30.5335 85.3227 31.4215C85.3227 31.6695 85.3027 31.9455 85.2627 32.2495C85.2307 32.5455 85.1627 32.8415 85.0587 33.1375C84.9627 33.4335 84.8267 33.7215 84.6507 34.0015C84.4827 34.2815 84.2667 34.5295 84.0027 34.7455C83.7387 34.9615 83.4187 35.1335 83.0427 35.2615C82.6747 35.3895 82.2387 35.4535 81.7347 35.4535ZM82.2987 30.2095C81.9947 30.2095 81.7507 30.2895 81.5667 30.4495C81.3907 30.6015 81.2547 30.7895 81.1587 31.0135C81.0707 31.2295 81.0107 31.4615 80.9787 31.7095C80.9547 31.9495 80.9427 32.1535 80.9427 32.3215C80.9427 32.8495 81.0267 33.2375 81.1947 33.4855C81.3627 33.7335 81.6027 33.8575 81.9147 33.8575C82.1947 33.8575 82.4227 33.7695 82.5987 33.5935C82.7827 33.4175 82.9227 33.2055 83.0187 32.9575C83.1227 32.7095 83.1907 32.4495 83.2227 32.1775C83.2627 31.9055 83.2827 31.6775 83.2827 31.4935C83.2827 31.0935 83.2067 30.7815 83.0547 30.5575C82.9107 30.3255 82.6587 30.2095 82.2987 30.2095ZM90.0946 31.6015C90.0466 31.6015 89.9906 31.6015 89.9266 31.6015C89.8706 31.5935 89.8146 31.5855 89.7586 31.5775C89.7026 31.5615 89.6546 31.5455 89.6146 31.5295C89.5746 31.5055 89.5546 31.4775 89.5546 31.4455C89.5546 31.3415 89.5586 31.2455 89.5666 31.1575C89.5746 31.0695 89.5786 30.9775 89.5786 30.8815C89.5786 30.7055 89.5546 30.5615 89.5066 30.4495C89.4586 30.3375 89.3626 30.2815 89.2186 30.2815C88.9946 30.2815 88.8066 30.4295 88.6546 30.7255C88.5106 31.0135 88.4186 31.4495 88.3786 32.0335C88.3626 32.2895 88.3386 32.5815 88.3066 32.9095C88.2826 33.2295 88.2586 33.5415 88.2346 33.8455C88.2106 34.1415 88.1906 34.4055 88.1746 34.6375C88.1586 34.8695 88.1506 35.0215 88.1506 35.0935C88.1506 35.1735 88.1226 35.2335 88.0666 35.2735C88.0106 35.3135 87.9506 35.3335 87.8866 35.3335H87.4546C87.2066 35.3335 87.0026 35.3095 86.8426 35.2615C86.6906 35.2055 86.5666 35.1295 86.4706 35.0335C86.3826 34.9375 86.3186 34.8215 86.2786 34.6855C86.2466 34.5415 86.2306 34.3775 86.2306 34.1935C86.2306 34.0735 86.2346 33.9055 86.2426 33.6895C86.2586 33.4655 86.2826 33.1615 86.3146 32.7775C86.3466 32.3855 86.3826 31.8935 86.4226 31.3015C86.4706 30.7015 86.5266 29.9615 86.5906 29.0815C86.6066 28.8495 86.6906 28.7335 86.8426 28.7335H87.3106C87.5346 28.7335 87.7226 28.7575 87.8746 28.8055C88.0266 28.8535 88.1506 28.9215 88.2466 29.0095C88.3426 29.0895 88.4106 29.1855 88.4506 29.2975C88.4986 29.4095 88.5306 29.5255 88.5466 29.6455C88.6426 29.4615 88.7546 29.3055 88.8826 29.1775C89.0186 29.0415 89.1586 28.9335 89.3026 28.8535C89.4466 28.7655 89.5946 28.7055 89.7466 28.6735C89.8986 28.6335 90.0386 28.6135 90.1666 28.6135C90.3186 28.6135 90.4706 28.6415 90.6226 28.6975C90.7826 28.7535 90.9266 28.8375 91.0546 28.9495C91.1826 29.0615 91.2826 29.2055 91.3546 29.3815C91.4346 29.5575 91.4746 29.7655 91.4746 30.0055C91.4746 30.2215 91.4426 30.4255 91.3786 30.6175C91.3146 30.8095 91.2226 30.9815 91.1026 31.1335C90.9826 31.2775 90.8346 31.3935 90.6586 31.4815C90.4906 31.5615 90.3026 31.6015 90.0946 31.6015ZM94.2528 29.8375C94.2528 30.0215 94.2408 30.2415 94.2168 30.4975C94.1928 30.7455 94.1648 30.9975 94.1328 31.2535C94.1088 31.5015 94.0848 31.7375 94.0608 31.9615C94.0368 32.1775 94.0248 32.3455 94.0248 32.4655C94.0248 32.7695 94.0968 32.9975 94.2408 33.1495C94.3928 33.2935 94.5768 33.3655 94.7928 33.3655C95.1688 33.3655 95.4688 33.1695 95.6928 32.7775C95.9168 32.3855 96.0568 31.8655 96.1128 31.2175L96.3048 28.9735C96.3128 28.8855 96.3408 28.8255 96.3888 28.7935C96.4448 28.7535 96.5048 28.7335 96.5688 28.7335H97.0008C97.1688 28.7335 97.3248 28.7495 97.4688 28.7815C97.6208 28.8055 97.7528 28.8575 97.8648 28.9375C97.9768 29.0095 98.0648 29.1095 98.1288 29.2375C98.1928 29.3655 98.2248 29.5295 98.2248 29.7295C98.2248 29.8095 98.2168 29.9615 98.2008 30.1855C98.1928 30.4015 98.1728 30.7175 98.1408 31.1335C98.1168 31.5415 98.0808 32.0615 98.0328 32.6935C97.9848 33.3175 97.9288 34.0815 97.8648 34.9855C97.8248 35.5135 97.7048 35.9495 97.5048 36.2935C97.3128 36.6455 97.0688 36.9215 96.7728 37.1215C96.4768 37.3295 96.1448 37.4735 95.7768 37.5535C95.4088 37.6335 95.0328 37.6735 94.6488 37.6735C94.2408 37.6735 93.8648 37.6375 93.5208 37.5655C93.1848 37.4935 92.8928 37.3935 92.6448 37.2655C92.3968 37.1375 92.2008 36.9895 92.0568 36.8215C91.9208 36.6535 91.8528 36.4735 91.8528 36.2815C91.8528 36.1295 91.8848 35.9975 91.9488 35.8855C92.0208 35.7735 92.1128 35.6815 92.2248 35.6095C92.3368 35.5375 92.4648 35.4815 92.6088 35.4415C92.7608 35.4095 92.9168 35.3935 93.0768 35.3935C93.1568 35.3935 93.2128 35.4335 93.2448 35.5135C93.2848 35.5935 93.3408 35.6815 93.4128 35.7775C93.4928 35.8815 93.6168 35.9735 93.7848 36.0535C93.9528 36.1335 94.2048 36.1735 94.5408 36.1735C94.8368 36.1735 95.0768 36.1015 95.2608 35.9575C95.4448 35.8135 95.5848 35.6295 95.6808 35.4055C95.7848 35.1815 95.8528 34.9375 95.8848 34.6735C95.9168 34.4095 95.9328 34.1575 95.9328 33.9175C95.8048 34.1415 95.6608 34.3255 95.5008 34.4695C95.3488 34.6055 95.1888 34.7135 95.0208 34.7935C94.8528 34.8655 94.6848 34.9135 94.5168 34.9375C94.3488 34.9615 94.1888 34.9735 94.0368 34.9735C93.7408 34.9735 93.4688 34.9335 93.2208 34.8535C92.9808 34.7735 92.7728 34.6455 92.5968 34.4695C92.4208 34.2855 92.2848 34.0495 92.1888 33.7615C92.0928 33.4735 92.0448 33.1255 92.0448 32.7175C92.0448 32.5655 92.0528 32.3655 92.0688 32.1175C92.0848 31.8615 92.1048 31.5775 92.1288 31.2655C92.1528 30.9455 92.1768 30.6015 92.2008 30.2335C92.2328 29.8655 92.2648 29.4895 92.2968 29.1055C92.3128 28.8575 92.4248 28.7335 92.6328 28.7335H93.0168C93.2728 28.7335 93.4808 28.7575 93.6408 28.8055C93.8008 28.8535 93.9248 28.9255 94.0128 29.0215C94.1088 29.1095 94.1728 29.2255 94.2048 29.3695C94.2368 29.5055 94.2528 29.6615 94.2528 29.8375Z" fill="#92E9F6"/>
</svg>
