<svg width="100" height="39" viewBox="0 0 100 39" fill="none" xmlns="http://www.w3.org/2000/svg">
<rect x="0.5" y="15.3335" width="7.66667" height="7.66667" fill="#F6C192"/>
<rect x="23.5" y="23.0002" width="7.66667" height="7.66667" transform="rotate(180 23.5 23.0002)" fill="#6941C6"/>
<path d="M8.16663 15.3337L15.8333 7.66699V15.3337L8.16663 23.0003V15.3337Z" fill="#FBD7BB"/>
<path d="M15.8334 23.0003L8.16671 30.667L8.16671 23.0003L15.8334 15.3337L15.8334 23.0003Z" fill="#F6C192"/>
<path d="M0.5 15.3336L15.8333 0.000244141V7.66691L8.16667 15.3336H0.5Z" fill="#7F56D9"/>
<path d="M23.5 23.0004L8.16667 38.3337L8.16667 30.6671L15.8333 23.0004L23.5 23.0004Z" fill="#FBD7BB"/>
<path d="M28.9062 8.36743C28.9062 7.62524 29.0898 6.94946 29.457 6.34009C29.832 5.73071 30.332 5.24634 30.957 4.88696C31.5898 4.51978 32.2852 4.33618 33.043 4.33618H41.668V6.79712H33.043C32.5898 6.79712 32.1992 6.95728 31.8711 7.27759C31.543 7.5979 31.3789 7.98462 31.3789 8.43774V9.58618C31.3789 10.0002 31.543 10.3557 31.8711 10.6526C32.1992 10.9495 32.5898 11.0979 33.043 11.0979H38.3516C39.1172 11.0979 39.8125 11.2815 40.4375 11.6487C41.0625 12.0081 41.5586 12.4963 41.9258 13.1135C42.3008 13.7229 42.4883 14.3987 42.4883 15.1409V16.9573C42.4883 17.6995 42.3008 18.3792 41.9258 18.9963C41.5586 19.6057 41.0625 20.094 40.4375 20.4612C39.8125 20.8206 39.1172 21.0002 38.3516 21.0002H28.918V18.5276H38.3516C38.8125 18.5276 39.2031 18.3752 39.5234 18.0706C39.8516 17.7581 40.0156 17.3831 40.0156 16.9456V15.1526C40.0156 14.7151 39.8516 14.3401 39.5234 14.0276C39.2031 13.7151 38.8125 13.5588 38.3516 13.5588H33.043C32.2852 13.5588 31.5898 13.3831 30.957 13.0315C30.332 12.6721 29.832 12.1917 29.457 11.5901C29.0898 10.9885 28.9062 10.3245 28.9062 9.5979V8.36743ZM45.1953 13.219C45.1953 12.4143 45.3906 11.6838 45.7812 11.0276C46.1797 10.3713 46.7109 9.8479 47.375 9.45728C48.0391 9.05884 48.7734 8.85962 49.5781 8.85962H56.3516V21.0002H53.8789V11.3323H49.5781C49.0547 11.3323 48.6055 11.5198 48.2305 11.8948C47.8555 12.262 47.668 12.7112 47.668 13.2424V16.594C47.668 17.1252 47.8555 17.5823 48.2305 17.9651C48.6055 18.3401 49.0547 18.5276 49.5781 18.5276H52.4727V21.0002H49.5781C48.7734 21.0002 48.0391 20.8049 47.375 20.4143C46.7109 20.0159 46.1797 19.4846 45.7812 18.8206C45.3906 18.1565 45.1953 17.4221 45.1953 16.6174V13.219ZM59.1641 4.33618H61.6367V8.85962H65.457C66.3008 8.85962 67.0664 9.05884 67.7539 9.45728C68.4492 9.8479 69 10.3752 69.4062 11.0393C69.8203 11.6956 70.0273 12.426 70.0273 13.2307V21.0002H67.5547V13.2659C67.5547 12.7502 67.3438 12.301 66.9219 11.9182C66.5078 11.5276 66.0195 11.3323 65.457 11.3323H61.6367V21.0002H59.1641V4.33618ZM72.7344 13.219C72.7344 12.4143 72.9297 11.6838 73.3203 11.0276C73.7188 10.3713 74.25 9.8479 74.9141 9.45728C75.5781 9.05884 76.3125 8.85962 77.1172 8.85962H83.8906V21.0002H81.418V11.3323H77.1172C76.5938 11.3323 76.1445 11.5198 75.7695 11.8948C75.3945 12.262 75.207 12.7112 75.207 13.2424V16.594C75.207 17.1252 75.3945 17.5823 75.7695 17.9651C76.1445 18.3401 76.5938 18.5276 77.1172 18.5276H80.0117V21.0002H77.1172C76.3125 21.0002 75.5781 20.8049 74.9141 20.4143C74.25 20.0159 73.7188 19.4846 73.3203 18.8206C72.9297 18.1565 72.7344 17.4221 72.7344 16.6174V13.219ZM86.7031 12.2581C86.7031 11.6331 86.8594 11.0627 87.1719 10.5471C87.4922 10.0315 87.9141 9.62134 88.4375 9.31665C88.9688 9.01196 89.5547 8.85962 90.1953 8.85962H92.9023V11.3206H90.1953C89.9141 11.3206 89.6719 11.4182 89.4688 11.6135C89.2734 11.801 89.1758 12.0315 89.1758 12.3049V21.0002H86.7031V12.2581ZM94.8594 5.55493C94.8594 5.13306 95.0078 4.77368 95.3047 4.47681C95.6016 4.17993 95.9609 4.03149 96.3828 4.03149C96.8047 4.03149 97.1641 4.17993 97.4609 4.47681C97.7578 4.77368 97.9062 5.13306 97.9062 5.55493C97.9062 5.97681 97.7578 6.33618 97.4609 6.63306C97.1641 6.92993 96.8047 7.07837 96.3828 7.07837C95.9609 7.07837 95.6016 6.92993 95.3047 6.63306C95.0078 6.33618 94.8594 5.97681 94.8594 5.55493ZM95.1406 8.85962H97.625V21.0002H95.1406V8.85962Z" fill="#0B0B0B"/>
<path d="M52.72 28.6042C52.656 28.7962 52.572 29.0482 52.468 29.3602C52.372 29.6642 52.264 30.0002 52.144 30.3682C52.024 30.7362 51.9 31.1282 51.772 31.5442C51.644 31.9522 51.512 32.3522 51.376 32.7442C51.248 33.1362 51.12 33.5122 50.992 33.8722C50.864 34.2242 50.748 34.5322 50.644 34.7962C50.612 34.8602 50.544 34.9122 50.44 34.9522C50.344 34.9842 50.188 35.0002 49.972 35.0002C49.836 35.0002 49.696 34.9922 49.552 34.9762C49.408 34.9602 49.272 34.9282 49.144 34.8802C49.024 34.8322 48.916 34.7682 48.82 34.6882C48.732 34.6082 48.664 34.5082 48.616 34.3882C48.496 33.9802 48.38 33.5282 48.268 33.0322C48.164 32.5282 48.06 32.0162 47.956 31.4962C47.852 30.9762 47.748 30.4682 47.644 29.9722C47.548 29.4682 47.448 29.0122 47.344 28.6042C47.344 28.7162 47.34 28.9082 47.332 29.1802C47.324 29.4522 47.316 29.7682 47.308 30.1282C47.3 30.4882 47.288 30.8762 47.272 31.2922C47.264 31.7082 47.256 32.1162 47.248 32.5162C47.24 32.9082 47.232 33.2762 47.224 33.6202C47.216 33.9562 47.212 34.2322 47.212 34.4482C47.212 34.6882 47.196 34.8402 47.164 34.9042C47.14 34.9682 47.092 35.0002 47.02 35.0002H46.36C45.904 35.0002 45.58 34.9122 45.388 34.7362C45.204 34.5522 45.112 34.2842 45.112 33.9322C45.112 33.8362 45.116 33.6762 45.124 33.4522C45.14 33.2202 45.16 32.9482 45.184 32.6362C45.208 32.3242 45.232 31.9842 45.256 31.6162C45.288 31.2402 45.32 30.8602 45.352 30.4762C45.392 29.9562 45.424 29.5242 45.448 29.1802C45.48 28.8282 45.504 28.5362 45.52 28.3042C45.536 28.0722 45.548 27.8842 45.556 27.7402C45.572 27.5962 45.58 27.4682 45.58 27.3562C45.588 27.2442 45.592 27.1402 45.592 27.0442C45.6 26.9402 45.604 26.8122 45.604 26.6602C45.604 26.5962 45.628 26.5522 45.676 26.5282C45.724 26.4962 45.768 26.4802 45.808 26.4802H47.488C47.8 26.4802 48.056 26.5322 48.256 26.6362C48.456 26.7322 48.62 26.8842 48.748 27.0922C48.876 27.3002 48.98 27.5722 49.06 27.9082C49.14 28.2362 49.212 28.6282 49.276 29.0842C49.348 29.5402 49.424 30.0682 49.504 30.6682C49.592 31.2602 49.704 31.9282 49.84 32.6722C49.968 32.1762 50.076 31.7642 50.164 31.4362C50.252 31.1082 50.324 30.8362 50.38 30.6202C50.444 30.3962 50.496 30.2122 50.536 30.0682C50.576 29.9242 50.612 29.7922 50.644 29.6722C50.676 29.5442 50.712 29.4082 50.752 29.2642C50.792 29.1202 50.84 28.9402 50.896 28.7242C50.952 28.5082 51.02 28.2402 51.1 27.9202C51.188 27.5922 51.296 27.1802 51.424 26.6842C51.44 26.6362 51.468 26.5922 51.508 26.5522C51.548 26.5042 51.62 26.4802 51.724 26.4802H53.596C53.852 26.4802 54.056 26.5082 54.208 26.5642C54.368 26.6122 54.492 26.6842 54.58 26.7802C54.668 26.8762 54.728 26.9962 54.76 27.1402C54.792 27.2762 54.808 27.4362 54.808 27.6202C54.808 27.8042 54.796 28.1042 54.772 28.5202C54.756 28.9282 54.728 29.3922 54.688 29.9122C54.656 30.4242 54.62 30.9562 54.58 31.5082C54.548 32.0602 54.512 32.5722 54.472 33.0442C54.44 33.5162 54.412 33.9162 54.388 34.2442C54.364 34.5722 54.348 34.7642 54.34 34.8202C54.332 34.8842 54.316 34.9322 54.292 34.9642C54.268 34.9882 54.22 35.0002 54.148 35.0002H53.488C53.032 35.0002 52.708 34.9122 52.516 34.7362C52.332 34.5522 52.24 34.3162 52.24 34.0282C52.24 33.9402 52.248 33.7802 52.264 33.5482C52.288 33.3162 52.316 33.0442 52.348 32.7322C52.38 32.4202 52.416 32.0802 52.456 31.7122C52.496 31.3362 52.532 30.9642 52.564 30.5962C52.596 30.2282 52.624 29.8722 52.648 29.5282C52.68 29.1762 52.704 28.8682 52.72 28.6042ZM58.6038 35.1202C58.2518 35.1202 57.8998 35.0762 57.5478 34.9882C57.2038 34.9002 56.8918 34.7482 56.6118 34.5322C56.3398 34.3162 56.1158 34.0282 55.9398 33.6682C55.7638 33.3082 55.6758 32.8562 55.6758 32.3122C55.6758 32.1122 55.6918 31.8722 55.7238 31.5922C55.7558 31.3122 55.8158 31.0242 55.9038 30.7282C55.9998 30.4322 56.1278 30.1402 56.2878 29.8522C56.4558 29.5562 56.6718 29.2922 56.9358 29.0602C57.1998 28.8282 57.5198 28.6402 57.8958 28.4962C58.2718 28.3522 58.7198 28.2802 59.2398 28.2802C59.6558 28.2802 60.0078 28.3282 60.2958 28.4242C60.5838 28.5202 60.8158 28.6522 60.9918 28.8202C61.1678 28.9802 61.2958 29.1682 61.3758 29.3842C61.4558 29.6002 61.4958 29.8322 61.4958 30.0802C61.4958 30.4482 61.4198 30.7602 61.2678 31.0162C61.1238 31.2722 60.9318 31.4882 60.6918 31.6642C60.4598 31.8322 60.1998 31.9642 59.9118 32.0602C59.6238 32.1562 59.3398 32.2322 59.0598 32.2882C58.7798 32.3362 58.5198 32.3682 58.2798 32.3842C58.0478 32.3922 57.8678 32.3962 57.7398 32.3962C57.7398 32.5482 57.7598 32.7002 57.7998 32.8522C57.8478 32.9962 57.9158 33.1242 58.0038 33.2362C58.0918 33.3482 58.2078 33.4402 58.3518 33.5122C58.4958 33.5842 58.6718 33.6202 58.8798 33.6202C59.0878 33.6202 59.2478 33.5882 59.3598 33.5242C59.4798 33.4522 59.5758 33.3762 59.6478 33.2962C59.7198 33.2082 59.7798 33.1322 59.8278 33.0682C59.8838 32.9962 59.9558 32.9602 60.0438 32.9602C60.0838 32.9602 60.1518 32.9722 60.2478 32.9962C60.3518 33.0122 60.4558 33.0522 60.5598 33.1162C60.6638 33.1802 60.7558 33.2682 60.8358 33.3802C60.9158 33.4922 60.9558 33.6362 60.9558 33.8122C60.9558 34.0442 60.8838 34.2442 60.7398 34.4122C60.5958 34.5802 60.4078 34.7162 60.1758 34.8202C59.9518 34.9242 59.6998 35.0002 59.4198 35.0482C59.1398 35.0962 58.8678 35.1202 58.6038 35.1202ZM58.8318 29.8762C58.6558 29.8762 58.5038 29.9282 58.3758 30.0322C58.2558 30.1282 58.1518 30.2522 58.0638 30.4042C57.9838 30.5562 57.9198 30.7242 57.8718 30.9082C57.8318 31.0922 57.7998 31.2682 57.7758 31.4362C58.2718 31.4282 58.6718 31.3442 58.9758 31.1842C59.2878 31.0242 59.4438 30.7962 59.4438 30.5002C59.4438 30.3402 59.3918 30.1962 59.2878 30.0682C59.1918 29.9402 59.0398 29.8762 58.8318 29.8762ZM64.2946 32.8402C64.2706 33.2082 64.2426 33.5602 64.2106 33.8962C64.1786 34.2242 64.1546 34.5122 64.1386 34.7602C64.1306 34.8562 64.1106 34.9202 64.0786 34.9522C64.0466 34.9842 63.9786 35.0002 63.8746 35.0002H63.4426C63.1946 35.0002 62.9906 34.9762 62.8306 34.9282C62.6786 34.8722 62.5546 34.7962 62.4586 34.7002C62.3706 34.6042 62.3066 34.4882 62.2666 34.3522C62.2346 34.2082 62.2186 34.0442 62.2186 33.8602C62.2186 33.7402 62.2226 33.5722 62.2306 33.3562C62.2466 33.1322 62.2706 32.8282 62.3026 32.4442C62.3346 32.0522 62.3706 31.5602 62.4106 30.9682C62.4586 30.3682 62.5146 29.6282 62.5786 28.7482C62.5866 28.5722 62.6066 28.4682 62.6386 28.4362C62.6626 28.4122 62.7266 28.4002 62.8306 28.4002H63.2986C63.5386 28.4002 63.7346 28.4282 63.8866 28.4842C64.0386 28.5402 64.1626 28.6122 64.2586 28.7002C64.3546 28.7882 64.4226 28.8922 64.4626 29.0122C64.5026 29.1322 64.5266 29.2562 64.5346 29.3842C64.7666 28.9522 65.0306 28.6602 65.3266 28.5082C65.6226 28.3562 65.9706 28.2802 66.3706 28.2802C66.5866 28.2802 66.7946 28.3002 66.9946 28.3402C67.1946 28.3802 67.3746 28.4482 67.5346 28.5442C67.6946 28.6402 67.8306 28.7682 67.9426 28.9282C68.0546 29.0802 68.1346 29.2762 68.1826 29.5162C68.4306 29.0522 68.7026 28.7322 68.9986 28.5562C69.2946 28.3722 69.6666 28.2802 70.1146 28.2802C70.3626 28.2802 70.5986 28.3082 70.8226 28.3642C71.0546 28.4122 71.2546 28.5002 71.4226 28.6282C71.5906 28.7562 71.7226 28.9322 71.8186 29.1562C71.9226 29.3722 71.9746 29.6442 71.9746 29.9722C71.9746 30.2202 71.9626 30.5242 71.9386 30.8842C71.9146 31.2442 71.8866 31.6362 71.8546 32.0602C71.8226 32.4762 71.7866 32.9082 71.7466 33.3562C71.7066 33.7962 71.6746 34.2202 71.6506 34.6282C71.6426 34.7162 71.6346 34.7842 71.6266 34.8322C71.6186 34.8802 71.6026 34.9162 71.5786 34.9402C71.5626 34.9642 71.5346 34.9802 71.4946 34.9882C71.4546 34.9962 71.3986 35.0002 71.3266 35.0002H70.9426C70.6866 35.0002 70.4786 34.9762 70.3186 34.9282C70.1586 34.8802 70.0346 34.8122 69.9466 34.7242C69.8586 34.6362 69.7946 34.5282 69.7546 34.4002C69.7226 34.2642 69.7066 34.1122 69.7066 33.9442C69.7066 33.8402 69.7106 33.6922 69.7186 33.5002C69.7346 33.3082 69.7506 33.1002 69.7666 32.8762C69.7906 32.6522 69.8106 32.4202 69.8266 32.1802C69.8506 31.9402 69.8706 31.7202 69.8866 31.5202C69.9106 31.3122 69.9266 31.1322 69.9346 30.9802C69.9506 30.8282 69.9586 30.7282 69.9586 30.6802C69.9586 30.4722 69.9146 30.2882 69.8266 30.1282C69.7466 29.9682 69.5866 29.8882 69.3466 29.8882C69.1386 29.8882 68.9586 29.9562 68.8066 30.0922C68.6546 30.2282 68.5266 30.4162 68.4226 30.6562C68.3186 30.8962 68.2346 31.1802 68.1706 31.5082C68.1066 31.8362 68.0626 32.1922 68.0386 32.5762C68.0226 32.8242 68.0026 33.1082 67.9786 33.4282C67.9546 33.7482 67.9266 34.1482 67.8946 34.6282C67.8866 34.7162 67.8786 34.7842 67.8706 34.8322C67.8626 34.8802 67.8466 34.9162 67.8226 34.9402C67.8066 34.9642 67.7786 34.9802 67.7386 34.9882C67.6986 34.9962 67.6426 35.0002 67.5706 35.0002H67.1866C66.9306 35.0002 66.7226 34.9762 66.5626 34.9282C66.4026 34.8802 66.2786 34.8122 66.1906 34.7242C66.1026 34.6362 66.0386 34.5282 65.9986 34.4002C65.9666 34.2642 65.9506 34.1122 65.9506 33.9442C65.9506 33.7842 65.9626 33.5522 65.9866 33.2482C66.0186 32.9362 66.0466 32.6162 66.0706 32.2882C66.1026 31.9522 66.1306 31.6362 66.1546 31.3402C66.1866 31.0362 66.2026 30.8162 66.2026 30.6802C66.2026 30.4722 66.1586 30.2882 66.0706 30.1282C65.9906 29.9682 65.8306 29.8882 65.5906 29.8882C65.3746 29.8882 65.1906 29.9682 65.0386 30.1282C64.8866 30.2882 64.7586 30.5042 64.6546 30.7762C64.5586 31.0402 64.4786 31.3522 64.4146 31.7122C64.3586 32.0722 64.3186 32.4482 64.2946 32.8402ZM75.7347 35.1202C75.1827 35.1202 74.7227 35.0442 74.3547 34.8922C73.9947 34.7322 73.7067 34.5162 73.4907 34.2442C73.2747 33.9722 73.1227 33.6562 73.0347 33.2962C72.9467 32.9282 72.9027 32.5362 72.9027 32.1202C72.9027 31.6402 72.9587 31.1722 73.0707 30.7162C73.1907 30.2522 73.3907 29.8402 73.6707 29.4802C73.9507 29.1202 74.3187 28.8322 74.7747 28.6162C75.2387 28.3922 75.8147 28.2802 76.5027 28.2802C77.5107 28.2802 78.2307 28.5282 78.6627 29.0242C79.1027 29.5122 79.3227 30.2002 79.3227 31.0882C79.3227 31.3362 79.3027 31.6122 79.2627 31.9162C79.2307 32.2122 79.1627 32.5082 79.0587 32.8042C78.9627 33.1002 78.8267 33.3882 78.6507 33.6682C78.4827 33.9482 78.2667 34.1962 78.0027 34.4122C77.7387 34.6282 77.4187 34.8002 77.0427 34.9282C76.6747 35.0562 76.2387 35.1202 75.7347 35.1202ZM76.2987 29.8762C75.9947 29.8762 75.7507 29.9562 75.5667 30.1162C75.3907 30.2682 75.2547 30.4562 75.1587 30.6802C75.0707 30.8962 75.0107 31.1282 74.9787 31.3762C74.9547 31.6162 74.9427 31.8202 74.9427 31.9882C74.9427 32.5162 75.0267 32.9042 75.1947 33.1522C75.3627 33.4002 75.6027 33.5242 75.9147 33.5242C76.1947 33.5242 76.4227 33.4362 76.5987 33.2602C76.7827 33.0842 76.9227 32.8722 77.0187 32.6242C77.1227 32.3762 77.1907 32.1162 77.2227 31.8442C77.2627 31.5722 77.2827 31.3442 77.2827 31.1602C77.2827 30.7602 77.2067 30.4482 77.0547 30.2242C76.9107 29.9922 76.6587 29.8762 76.2987 29.8762ZM84.0946 31.2682C84.0466 31.2682 83.9906 31.2682 83.9266 31.2682C83.8706 31.2602 83.8146 31.2522 83.7586 31.2442C83.7026 31.2282 83.6546 31.2122 83.6146 31.1962C83.5746 31.1722 83.5546 31.1442 83.5546 31.1122C83.5546 31.0082 83.5586 30.9122 83.5666 30.8242C83.5746 30.7362 83.5786 30.6442 83.5786 30.5482C83.5786 30.3722 83.5546 30.2282 83.5066 30.1162C83.4586 30.0042 83.3626 29.9482 83.2186 29.9482C82.9946 29.9482 82.8066 30.0962 82.6546 30.3922C82.5106 30.6802 82.4186 31.1162 82.3786 31.7002C82.3626 31.9562 82.3386 32.2482 82.3066 32.5762C82.2826 32.8962 82.2586 33.2082 82.2346 33.5122C82.2106 33.8082 82.1906 34.0722 82.1746 34.3042C82.1586 34.5362 82.1506 34.6882 82.1506 34.7602C82.1506 34.8402 82.1226 34.9002 82.0666 34.9402C82.0106 34.9802 81.9506 35.0002 81.8866 35.0002H81.4546C81.2066 35.0002 81.0026 34.9762 80.8426 34.9282C80.6906 34.8722 80.5666 34.7962 80.4706 34.7002C80.3826 34.6042 80.3186 34.4882 80.2786 34.3522C80.2466 34.2082 80.2306 34.0442 80.2306 33.8602C80.2306 33.7402 80.2346 33.5722 80.2426 33.3562C80.2586 33.1322 80.2826 32.8282 80.3146 32.4442C80.3466 32.0522 80.3826 31.5602 80.4226 30.9682C80.4706 30.3682 80.5266 29.6282 80.5906 28.7482C80.6066 28.5162 80.6906 28.4002 80.8426 28.4002H81.3106C81.5346 28.4002 81.7226 28.4242 81.8746 28.4722C82.0266 28.5202 82.1506 28.5882 82.2466 28.6762C82.3426 28.7562 82.4106 28.8522 82.4506 28.9642C82.4986 29.0762 82.5306 29.1922 82.5466 29.3122C82.6426 29.1282 82.7546 28.9722 82.8826 28.8442C83.0186 28.7082 83.1586 28.6002 83.3026 28.5202C83.4466 28.4322 83.5946 28.3722 83.7466 28.3402C83.8986 28.3002 84.0386 28.2802 84.1666 28.2802C84.3186 28.2802 84.4706 28.3082 84.6226 28.3642C84.7826 28.4202 84.9266 28.5042 85.0546 28.6162C85.1826 28.7282 85.2826 28.8722 85.3546 29.0482C85.4346 29.2242 85.4746 29.4322 85.4746 29.6722C85.4746 29.8882 85.4426 30.0922 85.3786 30.2842C85.3146 30.4762 85.2226 30.6482 85.1026 30.8002C84.9826 30.9442 84.8346 31.0602 84.6586 31.1482C84.4906 31.2282 84.3026 31.2682 84.0946 31.2682ZM88.2528 29.5042C88.2528 29.6882 88.2408 29.9082 88.2168 30.1642C88.1928 30.4122 88.1648 30.6642 88.1328 30.9202C88.1088 31.1682 88.0848 31.4042 88.0608 31.6282C88.0368 31.8442 88.0248 32.0122 88.0248 32.1322C88.0248 32.4362 88.0968 32.6642 88.2408 32.8162C88.3928 32.9602 88.5768 33.0322 88.7928 33.0322C89.1688 33.0322 89.4688 32.8362 89.6928 32.4442C89.9168 32.0522 90.0568 31.5322 90.1128 30.8842L90.3048 28.6402C90.3128 28.5522 90.3408 28.4922 90.3888 28.4602C90.4448 28.4202 90.5048 28.4002 90.5688 28.4002H91.0008C91.1688 28.4002 91.3248 28.4162 91.4688 28.4482C91.6208 28.4722 91.7528 28.5242 91.8648 28.6042C91.9768 28.6762 92.0648 28.7762 92.1288 28.9042C92.1928 29.0322 92.2248 29.1962 92.2248 29.3962C92.2248 29.4762 92.2168 29.6282 92.2008 29.8522C92.1928 30.0682 92.1728 30.3842 92.1408 30.8002C92.1168 31.2082 92.0808 31.7282 92.0328 32.3602C91.9848 32.9842 91.9288 33.7482 91.8648 34.6522C91.8248 35.1802 91.7048 35.6162 91.5048 35.9602C91.3128 36.3122 91.0688 36.5882 90.7728 36.7882C90.4768 36.9962 90.1448 37.1402 89.7768 37.2202C89.4088 37.3002 89.0328 37.3402 88.6488 37.3402C88.2408 37.3402 87.8648 37.3042 87.5208 37.2322C87.1848 37.1602 86.8928 37.0602 86.6448 36.9322C86.3968 36.8042 86.2008 36.6562 86.0568 36.4882C85.9208 36.3202 85.8528 36.1402 85.8528 35.9482C85.8528 35.7962 85.8848 35.6642 85.9488 35.5522C86.0208 35.4402 86.1128 35.3482 86.2248 35.2762C86.3368 35.2042 86.4648 35.1482 86.6088 35.1082C86.7608 35.0762 86.9168 35.0602 87.0768 35.0602C87.1568 35.0602 87.2128 35.1002 87.2448 35.1802C87.2848 35.2602 87.3408 35.3482 87.4128 35.4442C87.4928 35.5482 87.6168 35.6402 87.7848 35.7202C87.9528 35.8002 88.2048 35.8402 88.5408 35.8402C88.8368 35.8402 89.0768 35.7682 89.2608 35.6242C89.4448 35.4802 89.5848 35.2962 89.6808 35.0722C89.7848 34.8482 89.8528 34.6042 89.8848 34.3402C89.9168 34.0762 89.9328 33.8242 89.9328 33.5842C89.8048 33.8082 89.6608 33.9922 89.5008 34.1362C89.3488 34.2722 89.1888 34.3802 89.0208 34.4602C88.8528 34.5322 88.6848 34.5802 88.5168 34.6042C88.3488 34.6282 88.1888 34.6402 88.0368 34.6402C87.7408 34.6402 87.4688 34.6002 87.2208 34.5202C86.9808 34.4402 86.7728 34.3122 86.5968 34.1362C86.4208 33.9522 86.2848 33.7162 86.1888 33.4282C86.0928 33.1402 86.0448 32.7922 86.0448 32.3842C86.0448 32.2322 86.0528 32.0322 86.0688 31.7842C86.0848 31.5282 86.1048 31.2442 86.1288 30.9322C86.1528 30.6122 86.1768 30.2682 86.2008 29.9002C86.2328 29.5322 86.2648 29.1562 86.2968 28.7722C86.3128 28.5242 86.4248 28.4002 86.6328 28.4002H87.0168C87.2728 28.4002 87.4808 28.4242 87.6408 28.4722C87.8008 28.5202 87.9248 28.5922 88.0128 28.6882C88.1088 28.7762 88.1728 28.8922 88.2048 29.0362C88.2368 29.1722 88.2528 29.3282 88.2528 29.5042ZM95.985 33.7642C95.745 33.7642 95.545 33.7402 95.385 33.6922C95.225 33.6362 95.101 33.5602 95.013 33.4642C94.925 33.3682 94.861 33.2522 94.821 33.1162C94.789 32.9722 94.773 32.8082 94.773 32.6242C94.773 32.5042 94.777 32.3842 94.785 32.2642C94.793 32.1442 94.809 31.9522 94.833 31.6882H93.237C93.149 31.6882 93.105 31.6442 93.105 31.5562C93.105 31.5402 93.105 31.5242 93.105 31.5082C93.105 31.4922 93.105 31.4682 93.105 31.4362C93.105 31.4042 93.105 31.3602 93.105 31.3042C93.113 31.2482 93.121 31.1682 93.129 31.0642C93.137 30.9602 93.149 30.8602 93.165 30.7642C93.189 30.6602 93.229 30.5682 93.285 30.4882C93.349 30.4082 93.437 30.3442 93.549 30.2962C93.661 30.2482 93.809 30.2242 93.993 30.2242H94.953C94.969 29.9922 94.989 29.7362 95.013 29.4562C95.037 29.1762 95.061 28.8562 95.085 28.4962C95.093 28.3202 95.109 28.2202 95.133 28.1962C95.165 28.1642 95.241 28.1482 95.361 28.1482C95.609 28.1482 95.809 28.1722 95.961 28.2202C96.121 28.2682 96.245 28.3402 96.333 28.4362C96.429 28.5322 96.493 28.6482 96.525 28.7842C96.565 28.9202 96.585 29.0722 96.585 29.2402C96.585 29.3522 96.581 29.4762 96.573 29.6122C96.565 29.7482 96.549 29.9522 96.525 30.2242H98.097C98.145 30.2242 98.189 30.2402 98.229 30.2722C98.269 30.2962 98.289 30.3362 98.289 30.3922L98.253 30.8842C98.237 31.1242 98.169 31.3202 98.049 31.4722C97.937 31.6162 97.701 31.6882 97.341 31.6882H96.393L96.249 33.5242C96.241 33.6202 96.221 33.6842 96.189 33.7162C96.157 33.7482 96.089 33.7642 95.985 33.7642Z" fill="#F6C192"/>
</svg>
