<svg width="100" height="39" viewBox="0 0 100 39" fill="none" xmlns="http://www.w3.org/2000/svg">
<rect x="0.5" y="15.3335" width="7.66667" height="7.66667" fill="#92E9F6"/>
<rect x="23.5" y="23.0002" width="7.66667" height="7.66667" transform="rotate(180 23.5 23.0002)" fill="#6941C6"/>
<path d="M8.16663 15.3337L15.8333 7.66699V15.3337L8.16663 23.0003V15.3337Z" fill="#BBF0FB"/>
<path d="M15.8334 23.0003L8.16671 30.667L8.16671 23.0003L15.8334 15.3337L15.8334 23.0003Z" fill="#92E9F6"/>
<path d="M0.5 15.3336L15.8333 0.000244141V7.66691L8.16667 15.3336H0.5Z" fill="#7F56D9"/>
<path d="M23.5 23.0004L8.16667 38.3337L8.16667 30.6671L15.8333 23.0004L23.5 23.0004Z" fill="#BBF0FB"/>
<path d="M28.9062 8.36743C28.9062 7.62524 29.0898 6.94946 29.457 6.34009C29.832 5.73071 30.332 5.24634 30.957 4.88696C31.5898 4.51978 32.2852 4.33618 33.043 4.33618H41.668V6.79712H33.043C32.5898 6.79712 32.1992 6.95728 31.8711 7.27759C31.543 7.5979 31.3789 7.98462 31.3789 8.43774V9.58618C31.3789 10.0002 31.543 10.3557 31.8711 10.6526C32.1992 10.9495 32.5898 11.0979 33.043 11.0979H38.3516C39.1172 11.0979 39.8125 11.2815 40.4375 11.6487C41.0625 12.0081 41.5586 12.4963 41.9258 13.1135C42.3008 13.7229 42.4883 14.3987 42.4883 15.1409V16.9573C42.4883 17.6995 42.3008 18.3792 41.9258 18.9963C41.5586 19.6057 41.0625 20.094 40.4375 20.4612C39.8125 20.8206 39.1172 21.0002 38.3516 21.0002H28.918V18.5276H38.3516C38.8125 18.5276 39.2031 18.3752 39.5234 18.0706C39.8516 17.7581 40.0156 17.3831 40.0156 16.9456V15.1526C40.0156 14.7151 39.8516 14.3401 39.5234 14.0276C39.2031 13.7151 38.8125 13.5588 38.3516 13.5588H33.043C32.2852 13.5588 31.5898 13.3831 30.957 13.0315C30.332 12.6721 29.832 12.1917 29.457 11.5901C29.0898 10.9885 28.9062 10.3245 28.9062 9.5979V8.36743ZM45.1953 13.219C45.1953 12.4143 45.3906 11.6838 45.7812 11.0276C46.1797 10.3713 46.7109 9.8479 47.375 9.45728C48.0391 9.05884 48.7734 8.85962 49.5781 8.85962H56.3516V21.0002H53.8789V11.3323H49.5781C49.0547 11.3323 48.6055 11.5198 48.2305 11.8948C47.8555 12.262 47.668 12.7112 47.668 13.2424V16.594C47.668 17.1252 47.8555 17.5823 48.2305 17.9651C48.6055 18.3401 49.0547 18.5276 49.5781 18.5276H52.4727V21.0002H49.5781C48.7734 21.0002 48.0391 20.8049 47.375 20.4143C46.7109 20.0159 46.1797 19.4846 45.7812 18.8206C45.3906 18.1565 45.1953 17.4221 45.1953 16.6174V13.219ZM59.1641 4.33618H61.6367V8.85962H65.457C66.3008 8.85962 67.0664 9.05884 67.7539 9.45728C68.4492 9.8479 69 10.3752 69.4062 11.0393C69.8203 11.6956 70.0273 12.426 70.0273 13.2307V21.0002H67.5547V13.2659C67.5547 12.7502 67.3438 12.301 66.9219 11.9182C66.5078 11.5276 66.0195 11.3323 65.457 11.3323H61.6367V21.0002H59.1641V4.33618ZM72.7344 13.219C72.7344 12.4143 72.9297 11.6838 73.3203 11.0276C73.7188 10.3713 74.25 9.8479 74.9141 9.45728C75.5781 9.05884 76.3125 8.85962 77.1172 8.85962H83.8906V21.0002H81.418V11.3323H77.1172C76.5938 11.3323 76.1445 11.5198 75.7695 11.8948C75.3945 12.262 75.207 12.7112 75.207 13.2424V16.594C75.207 17.1252 75.3945 17.5823 75.7695 17.9651C76.1445 18.3401 76.5938 18.5276 77.1172 18.5276H80.0117V21.0002H77.1172C76.3125 21.0002 75.5781 20.8049 74.9141 20.4143C74.25 20.0159 73.7188 19.4846 73.3203 18.8206C72.9297 18.1565 72.7344 17.4221 72.7344 16.6174V13.219ZM86.7031 12.2581C86.7031 11.6331 86.8594 11.0627 87.1719 10.5471C87.4922 10.0315 87.9141 9.62134 88.4375 9.31665C88.9688 9.01196 89.5547 8.85962 90.1953 8.85962H92.9023V11.3206H90.1953C89.9141 11.3206 89.6719 11.4182 89.4688 11.6135C89.2734 11.801 89.1758 12.0315 89.1758 12.3049V21.0002H86.7031V12.2581ZM94.8594 5.55493C94.8594 5.13306 95.0078 4.77368 95.3047 4.47681C95.6016 4.17993 95.9609 4.03149 96.3828 4.03149C96.8047 4.03149 97.1641 4.17993 97.4609 4.47681C97.7578 4.77368 97.9062 5.13306 97.9062 5.55493C97.9062 5.97681 97.7578 6.33618 97.4609 6.63306C97.1641 6.92993 96.8047 7.07837 96.3828 7.07837C95.9609 7.07837 95.6016 6.92993 95.3047 6.63306C95.0078 6.33618 94.8594 5.97681 94.8594 5.55493ZM95.1406 8.85962H97.625V21.0002H95.1406V8.85962Z" fill="#0B0B0B"/>
<path d="M58.72 28.6042C58.656 28.7962 58.572 29.0482 58.468 29.3602C58.372 29.6642 58.264 30.0002 58.144 30.3682C58.024 30.7362 57.9 31.1282 57.772 31.5442C57.644 31.9522 57.512 32.3522 57.376 32.7442C57.248 33.1362 57.12 33.5122 56.992 33.8722C56.864 34.2242 56.748 34.5322 56.644 34.7962C56.612 34.8602 56.544 34.9122 56.44 34.9522C56.344 34.9842 56.188 35.0002 55.972 35.0002C55.836 35.0002 55.696 34.9922 55.552 34.9762C55.408 34.9602 55.272 34.9282 55.144 34.8802C55.024 34.8322 54.916 34.7682 54.82 34.6882C54.732 34.6082 54.664 34.5082 54.616 34.3882C54.496 33.9802 54.38 33.5282 54.268 33.0322C54.164 32.5282 54.06 32.0162 53.956 31.4962C53.852 30.9762 53.748 30.4682 53.644 29.9722C53.548 29.4682 53.448 29.0122 53.344 28.6042C53.344 28.7162 53.34 28.9082 53.332 29.1802C53.324 29.4522 53.316 29.7682 53.308 30.1282C53.3 30.4882 53.288 30.8762 53.272 31.2922C53.264 31.7082 53.256 32.1162 53.248 32.5162C53.24 32.9082 53.232 33.2762 53.224 33.6202C53.216 33.9562 53.212 34.2322 53.212 34.4482C53.212 34.6882 53.196 34.8402 53.164 34.9042C53.14 34.9682 53.092 35.0002 53.02 35.0002H52.36C51.904 35.0002 51.58 34.9122 51.388 34.7362C51.204 34.5522 51.112 34.2842 51.112 33.9322C51.112 33.8362 51.116 33.6762 51.124 33.4522C51.14 33.2202 51.16 32.9482 51.184 32.6362C51.208 32.3242 51.232 31.9842 51.256 31.6162C51.288 31.2402 51.32 30.8602 51.352 30.4762C51.392 29.9562 51.424 29.5242 51.448 29.1802C51.48 28.8282 51.504 28.5362 51.52 28.3042C51.536 28.0722 51.548 27.8842 51.556 27.7402C51.572 27.5962 51.58 27.4682 51.58 27.3562C51.588 27.2442 51.592 27.1402 51.592 27.0442C51.6 26.9402 51.604 26.8122 51.604 26.6602C51.604 26.5962 51.628 26.5522 51.676 26.5282C51.724 26.4962 51.768 26.4802 51.808 26.4802H53.488C53.8 26.4802 54.056 26.5322 54.256 26.6362C54.456 26.7322 54.62 26.8842 54.748 27.0922C54.876 27.3002 54.98 27.5722 55.06 27.9082C55.14 28.2362 55.212 28.6282 55.276 29.0842C55.348 29.5402 55.424 30.0682 55.504 30.6682C55.592 31.2602 55.704 31.9282 55.84 32.6722C55.968 32.1762 56.076 31.7642 56.164 31.4362C56.252 31.1082 56.324 30.8362 56.38 30.6202C56.444 30.3962 56.496 30.2122 56.536 30.0682C56.576 29.9242 56.612 29.7922 56.644 29.6722C56.676 29.5442 56.712 29.4082 56.752 29.2642C56.792 29.1202 56.84 28.9402 56.896 28.7242C56.952 28.5082 57.02 28.2402 57.1 27.9202C57.188 27.5922 57.296 27.1802 57.424 26.6842C57.44 26.6362 57.468 26.5922 57.508 26.5522C57.548 26.5042 57.62 26.4802 57.724 26.4802H59.596C59.852 26.4802 60.056 26.5082 60.208 26.5642C60.368 26.6122 60.492 26.6842 60.58 26.7802C60.668 26.8762 60.728 26.9962 60.76 27.1402C60.792 27.2762 60.808 27.4362 60.808 27.6202C60.808 27.8042 60.796 28.1042 60.772 28.5202C60.756 28.9282 60.728 29.3922 60.688 29.9122C60.656 30.4242 60.62 30.9562 60.58 31.5082C60.548 32.0602 60.512 32.5722 60.472 33.0442C60.44 33.5162 60.412 33.9162 60.388 34.2442C60.364 34.5722 60.348 34.7642 60.34 34.8202C60.332 34.8842 60.316 34.9322 60.292 34.9642C60.268 34.9882 60.22 35.0002 60.148 35.0002H59.488C59.032 35.0002 58.708 34.9122 58.516 34.7362C58.332 34.5522 58.24 34.3162 58.24 34.0282C58.24 33.9402 58.248 33.7802 58.264 33.5482C58.288 33.3162 58.316 33.0442 58.348 32.7322C58.38 32.4202 58.416 32.0802 58.456 31.7122C58.496 31.3362 58.532 30.9642 58.564 30.5962C58.596 30.2282 58.624 29.8722 58.648 29.5282C58.68 29.1762 58.704 28.8682 58.72 28.6042ZM64.6038 35.1202C64.2518 35.1202 63.8998 35.0762 63.5478 34.9882C63.2038 34.9002 62.8918 34.7482 62.6118 34.5322C62.3398 34.3162 62.1158 34.0282 61.9398 33.6682C61.7638 33.3082 61.6758 32.8562 61.6758 32.3122C61.6758 32.1122 61.6918 31.8722 61.7238 31.5922C61.7558 31.3122 61.8158 31.0242 61.9038 30.7282C61.9998 30.4322 62.1278 30.1402 62.2878 29.8522C62.4558 29.5562 62.6718 29.2922 62.9358 29.0602C63.1998 28.8282 63.5198 28.6402 63.8958 28.4962C64.2718 28.3522 64.7198 28.2802 65.2398 28.2802C65.6558 28.2802 66.0078 28.3282 66.2958 28.4242C66.5838 28.5202 66.8158 28.6522 66.9918 28.8202C67.1678 28.9802 67.2958 29.1682 67.3758 29.3842C67.4558 29.6002 67.4958 29.8322 67.4958 30.0802C67.4958 30.4482 67.4198 30.7602 67.2678 31.0162C67.1238 31.2722 66.9318 31.4882 66.6918 31.6642C66.4598 31.8322 66.1998 31.9642 65.9118 32.0602C65.6238 32.1562 65.3398 32.2322 65.0598 32.2882C64.7798 32.3362 64.5198 32.3682 64.2798 32.3842C64.0478 32.3922 63.8678 32.3962 63.7398 32.3962C63.7398 32.5482 63.7598 32.7002 63.7998 32.8522C63.8478 32.9962 63.9158 33.1242 64.0038 33.2362C64.0918 33.3482 64.2078 33.4402 64.3518 33.5122C64.4958 33.5842 64.6718 33.6202 64.8798 33.6202C65.0878 33.6202 65.2478 33.5882 65.3598 33.5242C65.4798 33.4522 65.5758 33.3762 65.6478 33.2962C65.7198 33.2082 65.7798 33.1322 65.8278 33.0682C65.8838 32.9962 65.9558 32.9602 66.0438 32.9602C66.0838 32.9602 66.1518 32.9722 66.2478 32.9962C66.3518 33.0122 66.4558 33.0522 66.5598 33.1162C66.6638 33.1802 66.7558 33.2682 66.8358 33.3802C66.9158 33.4922 66.9558 33.6362 66.9558 33.8122C66.9558 34.0442 66.8838 34.2442 66.7398 34.4122C66.5958 34.5802 66.4078 34.7162 66.1758 34.8202C65.9518 34.9242 65.6998 35.0002 65.4198 35.0482C65.1398 35.0962 64.8678 35.1202 64.6038 35.1202ZM64.8318 29.8762C64.6558 29.8762 64.5038 29.9282 64.3758 30.0322C64.2558 30.1282 64.1518 30.2522 64.0638 30.4042C63.9838 30.5562 63.9198 30.7242 63.8718 30.9082C63.8318 31.0922 63.7998 31.2682 63.7758 31.4362C64.2718 31.4282 64.6718 31.3442 64.9758 31.1842C65.2878 31.0242 65.4438 30.7962 65.4438 30.5002C65.4438 30.3402 65.3918 30.1962 65.2878 30.0682C65.1918 29.9402 65.0398 29.8762 64.8318 29.8762ZM70.2946 32.8402C70.2706 33.2082 70.2426 33.5602 70.2106 33.8962C70.1786 34.2242 70.1546 34.5122 70.1386 34.7602C70.1306 34.8562 70.1106 34.9202 70.0786 34.9522C70.0466 34.9842 69.9786 35.0002 69.8746 35.0002H69.4426C69.1946 35.0002 68.9906 34.9762 68.8306 34.9282C68.6786 34.8722 68.5546 34.7962 68.4586 34.7002C68.3706 34.6042 68.3066 34.4882 68.2666 34.3522C68.2346 34.2082 68.2186 34.0442 68.2186 33.8602C68.2186 33.7402 68.2226 33.5722 68.2306 33.3562C68.2466 33.1322 68.2706 32.8282 68.3026 32.4442C68.3346 32.0522 68.3706 31.5602 68.4106 30.9682C68.4586 30.3682 68.5146 29.6282 68.5786 28.7482C68.5866 28.5722 68.6066 28.4682 68.6386 28.4362C68.6626 28.4122 68.7266 28.4002 68.8306 28.4002H69.2986C69.5386 28.4002 69.7346 28.4282 69.8866 28.4842C70.0386 28.5402 70.1626 28.6122 70.2586 28.7002C70.3546 28.7882 70.4226 28.8922 70.4626 29.0122C70.5026 29.1322 70.5266 29.2562 70.5346 29.3842C70.7666 28.9522 71.0306 28.6602 71.3266 28.5082C71.6226 28.3562 71.9706 28.2802 72.3706 28.2802C72.5866 28.2802 72.7946 28.3002 72.9946 28.3402C73.1946 28.3802 73.3746 28.4482 73.5346 28.5442C73.6946 28.6402 73.8306 28.7682 73.9426 28.9282C74.0546 29.0802 74.1346 29.2762 74.1826 29.5162C74.4306 29.0522 74.7026 28.7322 74.9986 28.5562C75.2946 28.3722 75.6666 28.2802 76.1146 28.2802C76.3626 28.2802 76.5986 28.3082 76.8226 28.3642C77.0546 28.4122 77.2546 28.5002 77.4226 28.6282C77.5906 28.7562 77.7226 28.9322 77.8186 29.1562C77.9226 29.3722 77.9746 29.6442 77.9746 29.9722C77.9746 30.2202 77.9626 30.5242 77.9386 30.8842C77.9146 31.2442 77.8866 31.6362 77.8546 32.0602C77.8226 32.4762 77.7866 32.9082 77.7466 33.3562C77.7066 33.7962 77.6746 34.2202 77.6506 34.6282C77.6426 34.7162 77.6346 34.7842 77.6266 34.8322C77.6186 34.8802 77.6026 34.9162 77.5786 34.9402C77.5626 34.9642 77.5346 34.9802 77.4946 34.9882C77.4546 34.9962 77.3986 35.0002 77.3266 35.0002H76.9426C76.6866 35.0002 76.4786 34.9762 76.3186 34.9282C76.1586 34.8802 76.0346 34.8122 75.9466 34.7242C75.8586 34.6362 75.7946 34.5282 75.7546 34.4002C75.7226 34.2642 75.7066 34.1122 75.7066 33.9442C75.7066 33.8402 75.7106 33.6922 75.7186 33.5002C75.7346 33.3082 75.7506 33.1002 75.7666 32.8762C75.7906 32.6522 75.8106 32.4202 75.8266 32.1802C75.8506 31.9402 75.8706 31.7202 75.8866 31.5202C75.9106 31.3122 75.9266 31.1322 75.9346 30.9802C75.9506 30.8282 75.9586 30.7282 75.9586 30.6802C75.9586 30.4722 75.9146 30.2882 75.8266 30.1282C75.7466 29.9682 75.5866 29.8882 75.3466 29.8882C75.1386 29.8882 74.9586 29.9562 74.8066 30.0922C74.6546 30.2282 74.5266 30.4162 74.4226 30.6562C74.3186 30.8962 74.2346 31.1802 74.1706 31.5082C74.1066 31.8362 74.0626 32.1922 74.0386 32.5762C74.0226 32.8242 74.0026 33.1082 73.9786 33.4282C73.9546 33.7482 73.9266 34.1482 73.8946 34.6282C73.8866 34.7162 73.8786 34.7842 73.8706 34.8322C73.8626 34.8802 73.8466 34.9162 73.8226 34.9402C73.8066 34.9642 73.7786 34.9802 73.7386 34.9882C73.6986 34.9962 73.6426 35.0002 73.5706 35.0002H73.1866C72.9306 35.0002 72.7226 34.9762 72.5626 34.9282C72.4026 34.8802 72.2786 34.8122 72.1906 34.7242C72.1026 34.6362 72.0386 34.5282 71.9986 34.4002C71.9666 34.2642 71.9506 34.1122 71.9506 33.9442C71.9506 33.7842 71.9626 33.5522 71.9866 33.2482C72.0186 32.9362 72.0466 32.6162 72.0706 32.2882C72.1026 31.9522 72.1306 31.6362 72.1546 31.3402C72.1866 31.0362 72.2026 30.8162 72.2026 30.6802C72.2026 30.4722 72.1586 30.2882 72.0706 30.1282C71.9906 29.9682 71.8306 29.8882 71.5906 29.8882C71.3746 29.8882 71.1906 29.9682 71.0386 30.1282C70.8866 30.2882 70.7586 30.5042 70.6546 30.7762C70.5586 31.0402 70.4786 31.3522 70.4146 31.7122C70.3586 32.0722 70.3186 32.4482 70.2946 32.8402ZM81.7347 35.1202C81.1827 35.1202 80.7227 35.0442 80.3547 34.8922C79.9947 34.7322 79.7067 34.5162 79.4907 34.2442C79.2747 33.9722 79.1227 33.6562 79.0347 33.2962C78.9467 32.9282 78.9027 32.5362 78.9027 32.1202C78.9027 31.6402 78.9587 31.1722 79.0707 30.7162C79.1907 30.2522 79.3907 29.8402 79.6707 29.4802C79.9507 29.1202 80.3187 28.8322 80.7747 28.6162C81.2387 28.3922 81.8147 28.2802 82.5027 28.2802C83.5107 28.2802 84.2307 28.5282 84.6627 29.0242C85.1027 29.5122 85.3227 30.2002 85.3227 31.0882C85.3227 31.3362 85.3027 31.6122 85.2627 31.9162C85.2307 32.2122 85.1627 32.5082 85.0587 32.8042C84.9627 33.1002 84.8267 33.3882 84.6507 33.6682C84.4827 33.9482 84.2667 34.1962 84.0027 34.4122C83.7387 34.6282 83.4187 34.8002 83.0427 34.9282C82.6747 35.0562 82.2387 35.1202 81.7347 35.1202ZM82.2987 29.8762C81.9947 29.8762 81.7507 29.9562 81.5667 30.1162C81.3907 30.2682 81.2547 30.4562 81.1587 30.6802C81.0707 30.8962 81.0107 31.1282 80.9787 31.3762C80.9547 31.6162 80.9427 31.8202 80.9427 31.9882C80.9427 32.5162 81.0267 32.9042 81.1947 33.1522C81.3627 33.4002 81.6027 33.5242 81.9147 33.5242C82.1947 33.5242 82.4227 33.4362 82.5987 33.2602C82.7827 33.0842 82.9227 32.8722 83.0187 32.6242C83.1227 32.3762 83.1907 32.1162 83.2227 31.8442C83.2627 31.5722 83.2827 31.3442 83.2827 31.1602C83.2827 30.7602 83.2067 30.4482 83.0547 30.2242C82.9107 29.9922 82.6587 29.8762 82.2987 29.8762ZM90.0946 31.2682C90.0466 31.2682 89.9906 31.2682 89.9266 31.2682C89.8706 31.2602 89.8146 31.2522 89.7586 31.2442C89.7026 31.2282 89.6546 31.2122 89.6146 31.1962C89.5746 31.1722 89.5546 31.1442 89.5546 31.1122C89.5546 31.0082 89.5586 30.9122 89.5666 30.8242C89.5746 30.7362 89.5786 30.6442 89.5786 30.5482C89.5786 30.3722 89.5546 30.2282 89.5066 30.1162C89.4586 30.0042 89.3626 29.9482 89.2186 29.9482C88.9946 29.9482 88.8066 30.0962 88.6546 30.3922C88.5106 30.6802 88.4186 31.1162 88.3786 31.7002C88.3626 31.9562 88.3386 32.2482 88.3066 32.5762C88.2826 32.8962 88.2586 33.2082 88.2346 33.5122C88.2106 33.8082 88.1906 34.0722 88.1746 34.3042C88.1586 34.5362 88.1506 34.6882 88.1506 34.7602C88.1506 34.8402 88.1226 34.9002 88.0666 34.9402C88.0106 34.9802 87.9506 35.0002 87.8866 35.0002H87.4546C87.2066 35.0002 87.0026 34.9762 86.8426 34.9282C86.6906 34.8722 86.5666 34.7962 86.4706 34.7002C86.3826 34.6042 86.3186 34.4882 86.2786 34.3522C86.2466 34.2082 86.2306 34.0442 86.2306 33.8602C86.2306 33.7402 86.2346 33.5722 86.2426 33.3562C86.2586 33.1322 86.2826 32.8282 86.3146 32.4442C86.3466 32.0522 86.3826 31.5602 86.4226 30.9682C86.4706 30.3682 86.5266 29.6282 86.5906 28.7482C86.6066 28.5162 86.6906 28.4002 86.8426 28.4002H87.3106C87.5346 28.4002 87.7226 28.4242 87.8746 28.4722C88.0266 28.5202 88.1506 28.5882 88.2466 28.6762C88.3426 28.7562 88.4106 28.8522 88.4506 28.9642C88.4986 29.0762 88.5306 29.1922 88.5466 29.3122C88.6426 29.1282 88.7546 28.9722 88.8826 28.8442C89.0186 28.7082 89.1586 28.6002 89.3026 28.5202C89.4466 28.4322 89.5946 28.3722 89.7466 28.3402C89.8986 28.3002 90.0386 28.2802 90.1666 28.2802C90.3186 28.2802 90.4706 28.3082 90.6226 28.3642C90.7826 28.4202 90.9266 28.5042 91.0546 28.6162C91.1826 28.7282 91.2826 28.8722 91.3546 29.0482C91.4346 29.2242 91.4746 29.4322 91.4746 29.6722C91.4746 29.8882 91.4426 30.0922 91.3786 30.2842C91.3146 30.4762 91.2226 30.6482 91.1026 30.8002C90.9826 30.9442 90.8346 31.0602 90.6586 31.1482C90.4906 31.2282 90.3026 31.2682 90.0946 31.2682ZM94.2528 29.5042C94.2528 29.6882 94.2408 29.9082 94.2168 30.1642C94.1928 30.4122 94.1648 30.6642 94.1328 30.9202C94.1088 31.1682 94.0848 31.4042 94.0608 31.6282C94.0368 31.8442 94.0248 32.0122 94.0248 32.1322C94.0248 32.4362 94.0968 32.6642 94.2408 32.8162C94.3928 32.9602 94.5768 33.0322 94.7928 33.0322C95.1688 33.0322 95.4688 32.8362 95.6928 32.4442C95.9168 32.0522 96.0568 31.5322 96.1128 30.8842L96.3048 28.6402C96.3128 28.5522 96.3408 28.4922 96.3888 28.4602C96.4448 28.4202 96.5048 28.4002 96.5688 28.4002H97.0008C97.1688 28.4002 97.3248 28.4162 97.4688 28.4482C97.6208 28.4722 97.7528 28.5242 97.8648 28.6042C97.9768 28.6762 98.0648 28.7762 98.1288 28.9042C98.1928 29.0322 98.2248 29.1962 98.2248 29.3962C98.2248 29.4762 98.2168 29.6282 98.2008 29.8522C98.1928 30.0682 98.1728 30.3842 98.1408 30.8002C98.1168 31.2082 98.0808 31.7282 98.0328 32.3602C97.9848 32.9842 97.9288 33.7482 97.8648 34.6522C97.8248 35.1802 97.7048 35.6162 97.5048 35.9602C97.3128 36.3122 97.0688 36.5882 96.7728 36.7882C96.4768 36.9962 96.1448 37.1402 95.7768 37.2202C95.4088 37.3002 95.0328 37.3402 94.6488 37.3402C94.2408 37.3402 93.8648 37.3042 93.5208 37.2322C93.1848 37.1602 92.8928 37.0602 92.6448 36.9322C92.3968 36.8042 92.2008 36.6562 92.0568 36.4882C91.9208 36.3202 91.8528 36.1402 91.8528 35.9482C91.8528 35.7962 91.8848 35.6642 91.9488 35.5522C92.0208 35.4402 92.1128 35.3482 92.2248 35.2762C92.3368 35.2042 92.4648 35.1482 92.6088 35.1082C92.7608 35.0762 92.9168 35.0602 93.0768 35.0602C93.1568 35.0602 93.2128 35.1002 93.2448 35.1802C93.2848 35.2602 93.3408 35.3482 93.4128 35.4442C93.4928 35.5482 93.6168 35.6402 93.7848 35.7202C93.9528 35.8002 94.2048 35.8402 94.5408 35.8402C94.8368 35.8402 95.0768 35.7682 95.2608 35.6242C95.4448 35.4802 95.5848 35.2962 95.6808 35.0722C95.7848 34.8482 95.8528 34.6042 95.8848 34.3402C95.9168 34.0762 95.9328 33.8242 95.9328 33.5842C95.8048 33.8082 95.6608 33.9922 95.5008 34.1362C95.3488 34.2722 95.1888 34.3802 95.0208 34.4602C94.8528 34.5322 94.6848 34.5802 94.5168 34.6042C94.3488 34.6282 94.1888 34.6402 94.0368 34.6402C93.7408 34.6402 93.4688 34.6002 93.2208 34.5202C92.9808 34.4402 92.7728 34.3122 92.5968 34.1362C92.4208 33.9522 92.2848 33.7162 92.1888 33.4282C92.0928 33.1402 92.0448 32.7922 92.0448 32.3842C92.0448 32.2322 92.0528 32.0322 92.0688 31.7842C92.0848 31.5282 92.1048 31.2442 92.1288 30.9322C92.1528 30.6122 92.1768 30.2682 92.2008 29.9002C92.2328 29.5322 92.2648 29.1562 92.2968 28.7722C92.3128 28.5242 92.4248 28.4002 92.6328 28.4002H93.0168C93.2728 28.4002 93.4808 28.4242 93.6408 28.4722C93.8008 28.5202 93.9248 28.5922 94.0128 28.6882C94.1088 28.7762 94.1728 28.8922 94.2048 29.0362C94.2368 29.1722 94.2528 29.3282 94.2528 29.5042Z" fill="#92E9F6"/>
</svg>
