<svg width="100" height="40" viewBox="0 0 100 40" fill="none" xmlns="http://www.w3.org/2000/svg">
<rect x="0.5" y="15.6667" width="7.66667" height="7.66667" fill="#F6C192"/>
<rect x="23.5" y="23.3335" width="7.66667" height="7.66667" transform="rotate(180 23.5 23.3335)" fill="#6941C6"/>
<path d="M8.16663 15.6669L15.8333 8.00024V15.6669L8.16663 23.3336V15.6669Z" fill="#FBD7BB"/>
<path d="M15.8334 23.3336L8.16671 31.0002L8.16671 23.3336L15.8334 15.6669L15.8334 23.3336Z" fill="#F6C192"/>
<path d="M0.5 15.6668L15.8333 0.333496V8.00016L8.16667 15.6668H0.5Z" fill="#7F56D9"/>
<path d="M23.5 23.3337L8.16667 38.667L8.16667 31.0003L15.8333 23.3337L23.5 23.3337Z" fill="#FBD7BB"/>
<path d="M28.9062 8.70068C28.9062 7.9585 29.0898 7.28271 29.457 6.67334C29.832 6.06396 30.332 5.57959 30.957 5.22021C31.5898 4.85303 32.2852 4.66943 33.043 4.66943H41.668V7.13037H33.043C32.5898 7.13037 32.1992 7.29053 31.8711 7.61084C31.543 7.93115 31.3789 8.31787 31.3789 8.771V9.91943C31.3789 10.3335 31.543 10.689 31.8711 10.9858C32.1992 11.2827 32.5898 11.4312 33.043 11.4312H38.3516C39.1172 11.4312 39.8125 11.6147 40.4375 11.9819C41.0625 12.3413 41.5586 12.8296 41.9258 13.4468C42.3008 14.0562 42.4883 14.7319 42.4883 15.4741V17.2905C42.4883 18.0327 42.3008 18.7124 41.9258 19.3296C41.5586 19.939 41.0625 20.4272 40.4375 20.7944C39.8125 21.1538 39.1172 21.3335 38.3516 21.3335H28.918V18.8608H38.3516C38.8125 18.8608 39.2031 18.7085 39.5234 18.4038C39.8516 18.0913 40.0156 17.7163 40.0156 17.2788V15.4858C40.0156 15.0483 39.8516 14.6733 39.5234 14.3608C39.2031 14.0483 38.8125 13.8921 38.3516 13.8921H33.043C32.2852 13.8921 31.5898 13.7163 30.957 13.3647C30.332 13.0054 29.832 12.5249 29.457 11.9233C29.0898 11.3218 28.9062 10.6577 28.9062 9.93115V8.70068ZM45.1953 13.5522C45.1953 12.7476 45.3906 12.0171 45.7812 11.3608C46.1797 10.7046 46.7109 10.1812 47.375 9.79053C48.0391 9.39209 48.7734 9.19287 49.5781 9.19287H56.3516V21.3335H53.8789V11.6655H49.5781C49.0547 11.6655 48.6055 11.853 48.2305 12.228C47.8555 12.5952 47.668 13.0444 47.668 13.5757V16.9272C47.668 17.4585 47.8555 17.9155 48.2305 18.2983C48.6055 18.6733 49.0547 18.8608 49.5781 18.8608H52.4727V21.3335H49.5781C48.7734 21.3335 48.0391 21.1382 47.375 20.7476C46.7109 20.3491 46.1797 19.8179 45.7812 19.1538C45.3906 18.4897 45.1953 17.7554 45.1953 16.9507V13.5522ZM59.1641 4.66943H61.6367V9.19287H65.457C66.3008 9.19287 67.0664 9.39209 67.7539 9.79053C68.4492 10.1812 69 10.7085 69.4062 11.3726C69.8203 12.0288 70.0273 12.7593 70.0273 13.564V21.3335H67.5547V13.5991C67.5547 13.0835 67.3438 12.6343 66.9219 12.2515C66.5078 11.8608 66.0195 11.6655 65.457 11.6655H61.6367V21.3335H59.1641V4.66943ZM72.7344 13.5522C72.7344 12.7476 72.9297 12.0171 73.3203 11.3608C73.7188 10.7046 74.25 10.1812 74.9141 9.79053C75.5781 9.39209 76.3125 9.19287 77.1172 9.19287H83.8906V21.3335H81.418V11.6655H77.1172C76.5938 11.6655 76.1445 11.853 75.7695 12.228C75.3945 12.5952 75.207 13.0444 75.207 13.5757V16.9272C75.207 17.4585 75.3945 17.9155 75.7695 18.2983C76.1445 18.6733 76.5938 18.8608 77.1172 18.8608H80.0117V21.3335H77.1172C76.3125 21.3335 75.5781 21.1382 74.9141 20.7476C74.25 20.3491 73.7188 19.8179 73.3203 19.1538C72.9297 18.4897 72.7344 17.7554 72.7344 16.9507V13.5522ZM86.7031 12.5913C86.7031 11.9663 86.8594 11.396 87.1719 10.8804C87.4922 10.3647 87.9141 9.95459 88.4375 9.6499C88.9688 9.34521 89.5547 9.19287 90.1953 9.19287H92.9023V11.6538H90.1953C89.9141 11.6538 89.6719 11.7515 89.4688 11.9468C89.2734 12.1343 89.1758 12.3647 89.1758 12.6382V21.3335H86.7031V12.5913ZM94.8594 5.88818C94.8594 5.46631 95.0078 5.10693 95.3047 4.81006C95.6016 4.51318 95.9609 4.36475 96.3828 4.36475C96.8047 4.36475 97.1641 4.51318 97.4609 4.81006C97.7578 5.10693 97.9062 5.46631 97.9062 5.88818C97.9062 6.31006 97.7578 6.66943 97.4609 6.96631C97.1641 7.26318 96.8047 7.41162 96.3828 7.41162C95.9609 7.41162 95.6016 7.26318 95.3047 6.96631C95.0078 6.66943 94.8594 6.31006 94.8594 5.88818ZM95.1406 9.19287H97.625V21.3335H95.1406V9.19287Z" fill="#FBFBFB"/>
<path d="M52.72 28.9375C52.656 29.1295 52.572 29.3815 52.468 29.6935C52.372 29.9975 52.264 30.3335 52.144 30.7015C52.024 31.0695 51.9 31.4615 51.772 31.8775C51.644 32.2855 51.512 32.6855 51.376 33.0775C51.248 33.4695 51.12 33.8455 50.992 34.2055C50.864 34.5575 50.748 34.8655 50.644 35.1295C50.612 35.1935 50.544 35.2455 50.44 35.2855C50.344 35.3175 50.188 35.3335 49.972 35.3335C49.836 35.3335 49.696 35.3255 49.552 35.3095C49.408 35.2935 49.272 35.2615 49.144 35.2135C49.024 35.1655 48.916 35.1015 48.82 35.0215C48.732 34.9415 48.664 34.8415 48.616 34.7215C48.496 34.3135 48.38 33.8615 48.268 33.3655C48.164 32.8615 48.06 32.3495 47.956 31.8295C47.852 31.3095 47.748 30.8015 47.644 30.3055C47.548 29.8015 47.448 29.3455 47.344 28.9375C47.344 29.0495 47.34 29.2415 47.332 29.5135C47.324 29.7855 47.316 30.1015 47.308 30.4615C47.3 30.8215 47.288 31.2095 47.272 31.6255C47.264 32.0415 47.256 32.4495 47.248 32.8495C47.24 33.2415 47.232 33.6095 47.224 33.9535C47.216 34.2895 47.212 34.5655 47.212 34.7815C47.212 35.0215 47.196 35.1735 47.164 35.2375C47.14 35.3015 47.092 35.3335 47.02 35.3335H46.36C45.904 35.3335 45.58 35.2455 45.388 35.0695C45.204 34.8855 45.112 34.6175 45.112 34.2655C45.112 34.1695 45.116 34.0095 45.124 33.7855C45.14 33.5535 45.16 33.2815 45.184 32.9695C45.208 32.6575 45.232 32.3175 45.256 31.9495C45.288 31.5735 45.32 31.1935 45.352 30.8095C45.392 30.2895 45.424 29.8575 45.448 29.5135C45.48 29.1615 45.504 28.8695 45.52 28.6375C45.536 28.4055 45.548 28.2175 45.556 28.0735C45.572 27.9295 45.58 27.8015 45.58 27.6895C45.588 27.5775 45.592 27.4735 45.592 27.3775C45.6 27.2735 45.604 27.1455 45.604 26.9935C45.604 26.9295 45.628 26.8855 45.676 26.8615C45.724 26.8295 45.768 26.8135 45.808 26.8135H47.488C47.8 26.8135 48.056 26.8655 48.256 26.9695C48.456 27.0655 48.62 27.2175 48.748 27.4255C48.876 27.6335 48.98 27.9055 49.06 28.2415C49.14 28.5695 49.212 28.9615 49.276 29.4175C49.348 29.8735 49.424 30.4015 49.504 31.0015C49.592 31.5935 49.704 32.2615 49.84 33.0055C49.968 32.5095 50.076 32.0975 50.164 31.7695C50.252 31.4415 50.324 31.1695 50.38 30.9535C50.444 30.7295 50.496 30.5455 50.536 30.4015C50.576 30.2575 50.612 30.1255 50.644 30.0055C50.676 29.8775 50.712 29.7415 50.752 29.5975C50.792 29.4535 50.84 29.2735 50.896 29.0575C50.952 28.8415 51.02 28.5735 51.1 28.2535C51.188 27.9255 51.296 27.5135 51.424 27.0175C51.44 26.9695 51.468 26.9255 51.508 26.8855C51.548 26.8375 51.62 26.8135 51.724 26.8135H53.596C53.852 26.8135 54.056 26.8415 54.208 26.8975C54.368 26.9455 54.492 27.0175 54.58 27.1135C54.668 27.2095 54.728 27.3295 54.76 27.4735C54.792 27.6095 54.808 27.7695 54.808 27.9535C54.808 28.1375 54.796 28.4375 54.772 28.8535C54.756 29.2615 54.728 29.7255 54.688 30.2455C54.656 30.7575 54.62 31.2895 54.58 31.8415C54.548 32.3935 54.512 32.9055 54.472 33.3775C54.44 33.8495 54.412 34.2495 54.388 34.5775C54.364 34.9055 54.348 35.0975 54.34 35.1535C54.332 35.2175 54.316 35.2655 54.292 35.2975C54.268 35.3215 54.22 35.3335 54.148 35.3335H53.488C53.032 35.3335 52.708 35.2455 52.516 35.0695C52.332 34.8855 52.24 34.6495 52.24 34.3615C52.24 34.2735 52.248 34.1135 52.264 33.8815C52.288 33.6495 52.316 33.3775 52.348 33.0655C52.38 32.7535 52.416 32.4135 52.456 32.0455C52.496 31.6695 52.532 31.2975 52.564 30.9295C52.596 30.5615 52.624 30.2055 52.648 29.8615C52.68 29.5095 52.704 29.2015 52.72 28.9375ZM58.6038 35.4535C58.2518 35.4535 57.8998 35.4095 57.5478 35.3215C57.2038 35.2335 56.8918 35.0815 56.6118 34.8655C56.3398 34.6495 56.1158 34.3615 55.9398 34.0015C55.7638 33.6415 55.6758 33.1895 55.6758 32.6455C55.6758 32.4455 55.6918 32.2055 55.7238 31.9255C55.7558 31.6455 55.8158 31.3575 55.9038 31.0615C55.9998 30.7655 56.1278 30.4735 56.2878 30.1855C56.4558 29.8895 56.6718 29.6255 56.9358 29.3935C57.1998 29.1615 57.5198 28.9735 57.8958 28.8295C58.2718 28.6855 58.7198 28.6135 59.2398 28.6135C59.6558 28.6135 60.0078 28.6615 60.2958 28.7575C60.5838 28.8535 60.8158 28.9855 60.9918 29.1535C61.1678 29.3135 61.2958 29.5015 61.3758 29.7175C61.4558 29.9335 61.4958 30.1655 61.4958 30.4135C61.4958 30.7815 61.4198 31.0935 61.2678 31.3495C61.1238 31.6055 60.9318 31.8215 60.6918 31.9975C60.4598 32.1655 60.1998 32.2975 59.9118 32.3935C59.6238 32.4895 59.3398 32.5655 59.0598 32.6215C58.7798 32.6695 58.5198 32.7015 58.2798 32.7175C58.0478 32.7255 57.8678 32.7295 57.7398 32.7295C57.7398 32.8815 57.7598 33.0335 57.7998 33.1855C57.8478 33.3295 57.9158 33.4575 58.0038 33.5695C58.0918 33.6815 58.2078 33.7735 58.3518 33.8455C58.4958 33.9175 58.6718 33.9535 58.8798 33.9535C59.0878 33.9535 59.2478 33.9215 59.3598 33.8575C59.4798 33.7855 59.5758 33.7095 59.6478 33.6295C59.7198 33.5415 59.7798 33.4655 59.8278 33.4015C59.8838 33.3295 59.9558 33.2935 60.0438 33.2935C60.0838 33.2935 60.1518 33.3055 60.2478 33.3295C60.3518 33.3455 60.4558 33.3855 60.5598 33.4495C60.6638 33.5135 60.7558 33.6015 60.8358 33.7135C60.9158 33.8255 60.9558 33.9695 60.9558 34.1455C60.9558 34.3775 60.8838 34.5775 60.7398 34.7455C60.5958 34.9135 60.4078 35.0495 60.1758 35.1535C59.9518 35.2575 59.6998 35.3335 59.4198 35.3815C59.1398 35.4295 58.8678 35.4535 58.6038 35.4535ZM58.8318 30.2095C58.6558 30.2095 58.5038 30.2615 58.3758 30.3655C58.2558 30.4615 58.1518 30.5855 58.0638 30.7375C57.9838 30.8895 57.9198 31.0575 57.8718 31.2415C57.8318 31.4255 57.7998 31.6015 57.7758 31.7695C58.2718 31.7615 58.6718 31.6775 58.9758 31.5175C59.2878 31.3575 59.4438 31.1295 59.4438 30.8335C59.4438 30.6735 59.3918 30.5295 59.2878 30.4015C59.1918 30.2735 59.0398 30.2095 58.8318 30.2095ZM64.2946 33.1735C64.2706 33.5415 64.2426 33.8935 64.2106 34.2295C64.1786 34.5575 64.1546 34.8455 64.1386 35.0935C64.1306 35.1895 64.1106 35.2535 64.0786 35.2855C64.0466 35.3175 63.9786 35.3335 63.8746 35.3335H63.4426C63.1946 35.3335 62.9906 35.3095 62.8306 35.2615C62.6786 35.2055 62.5546 35.1295 62.4586 35.0335C62.3706 34.9375 62.3066 34.8215 62.2666 34.6855C62.2346 34.5415 62.2186 34.3775 62.2186 34.1935C62.2186 34.0735 62.2226 33.9055 62.2306 33.6895C62.2466 33.4655 62.2706 33.1615 62.3026 32.7775C62.3346 32.3855 62.3706 31.8935 62.4106 31.3015C62.4586 30.7015 62.5146 29.9615 62.5786 29.0815C62.5866 28.9055 62.6066 28.8015 62.6386 28.7695C62.6626 28.7455 62.7266 28.7335 62.8306 28.7335H63.2986C63.5386 28.7335 63.7346 28.7615 63.8866 28.8175C64.0386 28.8735 64.1626 28.9455 64.2586 29.0335C64.3546 29.1215 64.4226 29.2255 64.4626 29.3455C64.5026 29.4655 64.5266 29.5895 64.5346 29.7175C64.7666 29.2855 65.0306 28.9935 65.3266 28.8415C65.6226 28.6895 65.9706 28.6135 66.3706 28.6135C66.5866 28.6135 66.7946 28.6335 66.9946 28.6735C67.1946 28.7135 67.3746 28.7815 67.5346 28.8775C67.6946 28.9735 67.8306 29.1015 67.9426 29.2615C68.0546 29.4135 68.1346 29.6095 68.1826 29.8495C68.4306 29.3855 68.7026 29.0655 68.9986 28.8895C69.2946 28.7055 69.6666 28.6135 70.1146 28.6135C70.3626 28.6135 70.5986 28.6415 70.8226 28.6975C71.0546 28.7455 71.2546 28.8335 71.4226 28.9615C71.5906 29.0895 71.7226 29.2655 71.8186 29.4895C71.9226 29.7055 71.9746 29.9775 71.9746 30.3055C71.9746 30.5535 71.9626 30.8575 71.9386 31.2175C71.9146 31.5775 71.8866 31.9695 71.8546 32.3935C71.8226 32.8095 71.7866 33.2415 71.7466 33.6895C71.7066 34.1295 71.6746 34.5535 71.6506 34.9615C71.6426 35.0495 71.6346 35.1175 71.6266 35.1655C71.6186 35.2135 71.6026 35.2495 71.5786 35.2735C71.5626 35.2975 71.5346 35.3135 71.4946 35.3215C71.4546 35.3295 71.3986 35.3335 71.3266 35.3335H70.9426C70.6866 35.3335 70.4786 35.3095 70.3186 35.2615C70.1586 35.2135 70.0346 35.1455 69.9466 35.0575C69.8586 34.9695 69.7946 34.8615 69.7546 34.7335C69.7226 34.5975 69.7066 34.4455 69.7066 34.2775C69.7066 34.1735 69.7106 34.0255 69.7186 33.8335C69.7346 33.6415 69.7506 33.4335 69.7666 33.2095C69.7906 32.9855 69.8106 32.7535 69.8266 32.5135C69.8506 32.2735 69.8706 32.0535 69.8866 31.8535C69.9106 31.6455 69.9266 31.4655 69.9346 31.3135C69.9506 31.1615 69.9586 31.0615 69.9586 31.0135C69.9586 30.8055 69.9146 30.6215 69.8266 30.4615C69.7466 30.3015 69.5866 30.2215 69.3466 30.2215C69.1386 30.2215 68.9586 30.2895 68.8066 30.4255C68.6546 30.5615 68.5266 30.7495 68.4226 30.9895C68.3186 31.2295 68.2346 31.5135 68.1706 31.8415C68.1066 32.1695 68.0626 32.5255 68.0386 32.9095C68.0226 33.1575 68.0026 33.4415 67.9786 33.7615C67.9546 34.0815 67.9266 34.4815 67.8946 34.9615C67.8866 35.0495 67.8786 35.1175 67.8706 35.1655C67.8626 35.2135 67.8466 35.2495 67.8226 35.2735C67.8066 35.2975 67.7786 35.3135 67.7386 35.3215C67.6986 35.3295 67.6426 35.3335 67.5706 35.3335H67.1866C66.9306 35.3335 66.7226 35.3095 66.5626 35.2615C66.4026 35.2135 66.2786 35.1455 66.1906 35.0575C66.1026 34.9695 66.0386 34.8615 65.9986 34.7335C65.9666 34.5975 65.9506 34.4455 65.9506 34.2775C65.9506 34.1175 65.9626 33.8855 65.9866 33.5815C66.0186 33.2695 66.0466 32.9495 66.0706 32.6215C66.1026 32.2855 66.1306 31.9695 66.1546 31.6735C66.1866 31.3695 66.2026 31.1495 66.2026 31.0135C66.2026 30.8055 66.1586 30.6215 66.0706 30.4615C65.9906 30.3015 65.8306 30.2215 65.5906 30.2215C65.3746 30.2215 65.1906 30.3015 65.0386 30.4615C64.8866 30.6215 64.7586 30.8375 64.6546 31.1095C64.5586 31.3735 64.4786 31.6855 64.4146 32.0455C64.3586 32.4055 64.3186 32.7815 64.2946 33.1735ZM75.7347 35.4535C75.1827 35.4535 74.7227 35.3775 74.3547 35.2255C73.9947 35.0655 73.7067 34.8495 73.4907 34.5775C73.2747 34.3055 73.1227 33.9895 73.0347 33.6295C72.9467 33.2615 72.9027 32.8695 72.9027 32.4535C72.9027 31.9735 72.9587 31.5055 73.0707 31.0495C73.1907 30.5855 73.3907 30.1735 73.6707 29.8135C73.9507 29.4535 74.3187 29.1655 74.7747 28.9495C75.2387 28.7255 75.8147 28.6135 76.5027 28.6135C77.5107 28.6135 78.2307 28.8615 78.6627 29.3575C79.1027 29.8455 79.3227 30.5335 79.3227 31.4215C79.3227 31.6695 79.3027 31.9455 79.2627 32.2495C79.2307 32.5455 79.1627 32.8415 79.0587 33.1375C78.9627 33.4335 78.8267 33.7215 78.6507 34.0015C78.4827 34.2815 78.2667 34.5295 78.0027 34.7455C77.7387 34.9615 77.4187 35.1335 77.0427 35.2615C76.6747 35.3895 76.2387 35.4535 75.7347 35.4535ZM76.2987 30.2095C75.9947 30.2095 75.7507 30.2895 75.5667 30.4495C75.3907 30.6015 75.2547 30.7895 75.1587 31.0135C75.0707 31.2295 75.0107 31.4615 74.9787 31.7095C74.9547 31.9495 74.9427 32.1535 74.9427 32.3215C74.9427 32.8495 75.0267 33.2375 75.1947 33.4855C75.3627 33.7335 75.6027 33.8575 75.9147 33.8575C76.1947 33.8575 76.4227 33.7695 76.5987 33.5935C76.7827 33.4175 76.9227 33.2055 77.0187 32.9575C77.1227 32.7095 77.1907 32.4495 77.2227 32.1775C77.2627 31.9055 77.2827 31.6775 77.2827 31.4935C77.2827 31.0935 77.2067 30.7815 77.0547 30.5575C76.9107 30.3255 76.6587 30.2095 76.2987 30.2095ZM84.0946 31.6015C84.0466 31.6015 83.9906 31.6015 83.9266 31.6015C83.8706 31.5935 83.8146 31.5855 83.7586 31.5775C83.7026 31.5615 83.6546 31.5455 83.6146 31.5295C83.5746 31.5055 83.5546 31.4775 83.5546 31.4455C83.5546 31.3415 83.5586 31.2455 83.5666 31.1575C83.5746 31.0695 83.5786 30.9775 83.5786 30.8815C83.5786 30.7055 83.5546 30.5615 83.5066 30.4495C83.4586 30.3375 83.3626 30.2815 83.2186 30.2815C82.9946 30.2815 82.8066 30.4295 82.6546 30.7255C82.5106 31.0135 82.4186 31.4495 82.3786 32.0335C82.3626 32.2895 82.3386 32.5815 82.3066 32.9095C82.2826 33.2295 82.2586 33.5415 82.2346 33.8455C82.2106 34.1415 82.1906 34.4055 82.1746 34.6375C82.1586 34.8695 82.1506 35.0215 82.1506 35.0935C82.1506 35.1735 82.1226 35.2335 82.0666 35.2735C82.0106 35.3135 81.9506 35.3335 81.8866 35.3335H81.4546C81.2066 35.3335 81.0026 35.3095 80.8426 35.2615C80.6906 35.2055 80.5666 35.1295 80.4706 35.0335C80.3826 34.9375 80.3186 34.8215 80.2786 34.6855C80.2466 34.5415 80.2306 34.3775 80.2306 34.1935C80.2306 34.0735 80.2346 33.9055 80.2426 33.6895C80.2586 33.4655 80.2826 33.1615 80.3146 32.7775C80.3466 32.3855 80.3826 31.8935 80.4226 31.3015C80.4706 30.7015 80.5266 29.9615 80.5906 29.0815C80.6066 28.8495 80.6906 28.7335 80.8426 28.7335H81.3106C81.5346 28.7335 81.7226 28.7575 81.8746 28.8055C82.0266 28.8535 82.1506 28.9215 82.2466 29.0095C82.3426 29.0895 82.4106 29.1855 82.4506 29.2975C82.4986 29.4095 82.5306 29.5255 82.5466 29.6455C82.6426 29.4615 82.7546 29.3055 82.8826 29.1775C83.0186 29.0415 83.1586 28.9335 83.3026 28.8535C83.4466 28.7655 83.5946 28.7055 83.7466 28.6735C83.8986 28.6335 84.0386 28.6135 84.1666 28.6135C84.3186 28.6135 84.4706 28.6415 84.6226 28.6975C84.7826 28.7535 84.9266 28.8375 85.0546 28.9495C85.1826 29.0615 85.2826 29.2055 85.3546 29.3815C85.4346 29.5575 85.4746 29.7655 85.4746 30.0055C85.4746 30.2215 85.4426 30.4255 85.3786 30.6175C85.3146 30.8095 85.2226 30.9815 85.1026 31.1335C84.9826 31.2775 84.8346 31.3935 84.6586 31.4815C84.4906 31.5615 84.3026 31.6015 84.0946 31.6015ZM88.2528 29.8375C88.2528 30.0215 88.2408 30.2415 88.2168 30.4975C88.1928 30.7455 88.1648 30.9975 88.1328 31.2535C88.1088 31.5015 88.0848 31.7375 88.0608 31.9615C88.0368 32.1775 88.0248 32.3455 88.0248 32.4655C88.0248 32.7695 88.0968 32.9975 88.2408 33.1495C88.3928 33.2935 88.5768 33.3655 88.7928 33.3655C89.1688 33.3655 89.4688 33.1695 89.6928 32.7775C89.9168 32.3855 90.0568 31.8655 90.1128 31.2175L90.3048 28.9735C90.3128 28.8855 90.3408 28.8255 90.3888 28.7935C90.4448 28.7535 90.5048 28.7335 90.5688 28.7335H91.0008C91.1688 28.7335 91.3248 28.7495 91.4688 28.7815C91.6208 28.8055 91.7528 28.8575 91.8648 28.9375C91.9768 29.0095 92.0648 29.1095 92.1288 29.2375C92.1928 29.3655 92.2248 29.5295 92.2248 29.7295C92.2248 29.8095 92.2168 29.9615 92.2008 30.1855C92.1928 30.4015 92.1728 30.7175 92.1408 31.1335C92.1168 31.5415 92.0808 32.0615 92.0328 32.6935C91.9848 33.3175 91.9288 34.0815 91.8648 34.9855C91.8248 35.5135 91.7048 35.9495 91.5048 36.2935C91.3128 36.6455 91.0688 36.9215 90.7728 37.1215C90.4768 37.3295 90.1448 37.4735 89.7768 37.5535C89.4088 37.6335 89.0328 37.6735 88.6488 37.6735C88.2408 37.6735 87.8648 37.6375 87.5208 37.5655C87.1848 37.4935 86.8928 37.3935 86.6448 37.2655C86.3968 37.1375 86.2008 36.9895 86.0568 36.8215C85.9208 36.6535 85.8528 36.4735 85.8528 36.2815C85.8528 36.1295 85.8848 35.9975 85.9488 35.8855C86.0208 35.7735 86.1128 35.6815 86.2248 35.6095C86.3368 35.5375 86.4648 35.4815 86.6088 35.4415C86.7608 35.4095 86.9168 35.3935 87.0768 35.3935C87.1568 35.3935 87.2128 35.4335 87.2448 35.5135C87.2848 35.5935 87.3408 35.6815 87.4128 35.7775C87.4928 35.8815 87.6168 35.9735 87.7848 36.0535C87.9528 36.1335 88.2048 36.1735 88.5408 36.1735C88.8368 36.1735 89.0768 36.1015 89.2608 35.9575C89.4448 35.8135 89.5848 35.6295 89.6808 35.4055C89.7848 35.1815 89.8528 34.9375 89.8848 34.6735C89.9168 34.4095 89.9328 34.1575 89.9328 33.9175C89.8048 34.1415 89.6608 34.3255 89.5008 34.4695C89.3488 34.6055 89.1888 34.7135 89.0208 34.7935C88.8528 34.8655 88.6848 34.9135 88.5168 34.9375C88.3488 34.9615 88.1888 34.9735 88.0368 34.9735C87.7408 34.9735 87.4688 34.9335 87.2208 34.8535C86.9808 34.7735 86.7728 34.6455 86.5968 34.4695C86.4208 34.2855 86.2848 34.0495 86.1888 33.7615C86.0928 33.4735 86.0448 33.1255 86.0448 32.7175C86.0448 32.5655 86.0528 32.3655 86.0688 32.1175C86.0848 31.8615 86.1048 31.5775 86.1288 31.2655C86.1528 30.9455 86.1768 30.6015 86.2008 30.2335C86.2328 29.8655 86.2648 29.4895 86.2968 29.1055C86.3128 28.8575 86.4248 28.7335 86.6328 28.7335H87.0168C87.2728 28.7335 87.4808 28.7575 87.6408 28.8055C87.8008 28.8535 87.9248 28.9255 88.0128 29.0215C88.1088 29.1095 88.1728 29.2255 88.2048 29.3695C88.2368 29.5055 88.2528 29.6615 88.2528 29.8375ZM95.985 34.0975C95.745 34.0975 95.545 34.0735 95.385 34.0255C95.225 33.9695 95.101 33.8935 95.013 33.7975C94.925 33.7015 94.861 33.5855 94.821 33.4495C94.789 33.3055 94.773 33.1415 94.773 32.9575C94.773 32.8375 94.777 32.7175 94.785 32.5975C94.793 32.4775 94.809 32.2855 94.833 32.0215H93.237C93.149 32.0215 93.105 31.9775 93.105 31.8895C93.105 31.8735 93.105 31.8575 93.105 31.8415C93.105 31.8255 93.105 31.8015 93.105 31.7695C93.105 31.7375 93.105 31.6935 93.105 31.6375C93.113 31.5815 93.121 31.5015 93.129 31.3975C93.137 31.2935 93.149 31.1935 93.165 31.0975C93.189 30.9935 93.229 30.9015 93.285 30.8215C93.349 30.7415 93.437 30.6775 93.549 30.6295C93.661 30.5815 93.809 30.5575 93.993 30.5575H94.953C94.969 30.3255 94.989 30.0695 95.013 29.7895C95.037 29.5095 95.061 29.1895 95.085 28.8295C95.093 28.6535 95.109 28.5535 95.133 28.5295C95.165 28.4975 95.241 28.4815 95.361 28.4815C95.609 28.4815 95.809 28.5055 95.961 28.5535C96.121 28.6015 96.245 28.6735 96.333 28.7695C96.429 28.8655 96.493 28.9815 96.525 29.1175C96.565 29.2535 96.585 29.4055 96.585 29.5735C96.585 29.6855 96.581 29.8095 96.573 29.9455C96.565 30.0815 96.549 30.2855 96.525 30.5575H98.097C98.145 30.5575 98.189 30.5735 98.229 30.6055C98.269 30.6295 98.289 30.6695 98.289 30.7255L98.253 31.2175C98.237 31.4575 98.169 31.6535 98.049 31.8055C97.937 31.9495 97.701 32.0215 97.341 32.0215H96.393L96.249 33.8575C96.241 33.9535 96.221 34.0175 96.189 34.0495C96.157 34.0815 96.089 34.0975 95.985 34.0975Z" fill="#F6C192"/>
</svg>
