<svg width="100" height="40" viewBox="0 0 100 40" fill="none" xmlns="http://www.w3.org/2000/svg">
<rect x="0.5" y="15.667" width="7.66667" height="7.66667" fill="#FF96CA"/>
<rect x="23.5" y="23.3337" width="7.66667" height="7.66667" transform="rotate(180 23.5 23.3337)" fill="#6941C6"/>
<path d="M8.16663 15.6672L15.8333 8.00049V15.6672L8.16663 23.3338V15.6672Z" fill="#ED77D8"/>
<path d="M15.8334 23.3338L8.16671 31.0005L8.16671 23.3338L15.8334 15.6672L15.8334 23.3338Z" fill="#FF96CA"/>
<path d="M0.5 15.6671L15.8333 0.33374V8.00041L8.16667 15.6671H0.5Z" fill="#7F56D9"/>
<path d="M23.5 23.3339L8.16667 38.6672L8.16667 31.0006L15.8333 23.3339L23.5 23.3339Z" fill="#ED77D8"/>
<path d="M28.9062 8.70093C28.9062 7.95874 29.0898 7.28296 29.457 6.67358C29.832 6.06421 30.332 5.57983 30.957 5.22046C31.5898 4.85327 32.2852 4.66968 33.043 4.66968H41.668V7.13062H33.043C32.5898 7.13062 32.1992 7.29077 31.8711 7.61108C31.543 7.9314 31.3789 8.31812 31.3789 8.77124V9.91968C31.3789 10.3337 31.543 10.6892 31.8711 10.9861C32.1992 11.283 32.5898 11.4314 33.043 11.4314H38.3516C39.1172 11.4314 39.8125 11.615 40.4375 11.9822C41.0625 12.3416 41.5586 12.8298 41.9258 13.447C42.3008 14.0564 42.4883 14.7322 42.4883 15.4744V17.2908C42.4883 18.033 42.3008 18.7126 41.9258 19.3298C41.5586 19.9392 41.0625 20.4275 40.4375 20.7947C39.8125 21.1541 39.1172 21.3337 38.3516 21.3337H28.918V18.8611H38.3516C38.8125 18.8611 39.2031 18.7087 39.5234 18.4041C39.8516 18.0916 40.0156 17.7166 40.0156 17.2791V15.4861C40.0156 15.0486 39.8516 14.6736 39.5234 14.3611C39.2031 14.0486 38.8125 13.8923 38.3516 13.8923H33.043C32.2852 13.8923 31.5898 13.7166 30.957 13.365C30.332 13.0056 29.832 12.5251 29.457 11.9236C29.0898 11.322 28.9062 10.658 28.9062 9.9314V8.70093ZM45.1953 13.5525C45.1953 12.7478 45.3906 12.0173 45.7812 11.3611C46.1797 10.7048 46.7109 10.1814 47.375 9.79077C48.0391 9.39233 48.7734 9.19312 49.5781 9.19312H56.3516V21.3337H53.8789V11.6658H49.5781C49.0547 11.6658 48.6055 11.8533 48.2305 12.2283C47.8555 12.5955 47.668 13.0447 47.668 13.5759V16.9275C47.668 17.4587 47.8555 17.9158 48.2305 18.2986C48.6055 18.6736 49.0547 18.8611 49.5781 18.8611H52.4727V21.3337H49.5781C48.7734 21.3337 48.0391 21.1384 47.375 20.7478C46.7109 20.3494 46.1797 19.8181 45.7812 19.1541C45.3906 18.49 45.1953 17.7556 45.1953 16.9509V13.5525ZM59.1641 4.66968H61.6367V9.19312H65.457C66.3008 9.19312 67.0664 9.39233 67.7539 9.79077C68.4492 10.1814 69 10.7087 69.4062 11.3728C69.8203 12.0291 70.0273 12.7595 70.0273 13.5642V21.3337H67.5547V13.5994C67.5547 13.0837 67.3438 12.6345 66.9219 12.2517C66.5078 11.8611 66.0195 11.6658 65.457 11.6658H61.6367V21.3337H59.1641V4.66968ZM72.7344 13.5525C72.7344 12.7478 72.9297 12.0173 73.3203 11.3611C73.7188 10.7048 74.25 10.1814 74.9141 9.79077C75.5781 9.39233 76.3125 9.19312 77.1172 9.19312H83.8906V21.3337H81.418V11.6658H77.1172C76.5938 11.6658 76.1445 11.8533 75.7695 12.2283C75.3945 12.5955 75.207 13.0447 75.207 13.5759V16.9275C75.207 17.4587 75.3945 17.9158 75.7695 18.2986C76.1445 18.6736 76.5938 18.8611 77.1172 18.8611H80.0117V21.3337H77.1172C76.3125 21.3337 75.5781 21.1384 74.9141 20.7478C74.25 20.3494 73.7188 19.8181 73.3203 19.1541C72.9297 18.49 72.7344 17.7556 72.7344 16.9509V13.5525ZM86.7031 12.5916C86.7031 11.9666 86.8594 11.3962 87.1719 10.8806C87.4922 10.365 87.9141 9.95483 88.4375 9.65015C88.9688 9.34546 89.5547 9.19312 90.1953 9.19312H92.9023V11.6541H90.1953C89.9141 11.6541 89.6719 11.7517 89.4688 11.947C89.2734 12.1345 89.1758 12.365 89.1758 12.6384V21.3337H86.7031V12.5916ZM94.8594 5.88843C94.8594 5.46655 95.0078 5.10718 95.3047 4.8103C95.6016 4.51343 95.9609 4.36499 96.3828 4.36499C96.8047 4.36499 97.1641 4.51343 97.4609 4.8103C97.7578 5.10718 97.9062 5.46655 97.9062 5.88843C97.9062 6.3103 97.7578 6.66968 97.4609 6.96655C97.1641 7.26343 96.8047 7.41187 96.3828 7.41187C95.9609 7.41187 95.6016 7.26343 95.3047 6.96655C95.0078 6.66968 94.8594 6.3103 94.8594 5.88843ZM95.1406 9.19312H97.625V21.3337H95.1406V9.19312Z" fill="#FBFBFB"/>
<path d="M60.38 31.8657L60.152 35.1537C60.144 35.2177 60.136 35.2657 60.128 35.2977C60.128 35.3217 60.092 35.3337 60.02 35.3337H59.36C58.912 35.3337 58.592 35.2457 58.4 35.0697C58.208 34.8937 58.112 34.6417 58.112 34.3137C58.112 34.1537 58.124 33.8817 58.148 33.4977C58.172 33.1057 58.204 32.6617 58.244 32.1657C58.284 31.6697 58.324 31.1457 58.364 30.5937C58.404 30.0417 58.444 29.5217 58.484 29.0337C58.524 28.5457 58.556 28.1177 58.58 27.7497C58.604 27.3817 58.616 27.1297 58.616 26.9937C58.616 26.8737 58.68 26.8137 58.808 26.8137H63.032C63.08 26.8137 63.124 26.8257 63.164 26.8497C63.204 26.8737 63.224 26.9177 63.224 26.9817L63.176 27.6897C63.16 27.9297 63.092 28.1257 62.972 28.2777C62.86 28.4217 62.624 28.4937 62.264 28.4937H60.608L60.488 30.1857H62.192C62.24 30.1857 62.284 30.1977 62.324 30.2217C62.364 30.2457 62.384 30.2897 62.384 30.3537L62.336 31.0617C62.32 31.3017 62.252 31.4977 62.132 31.6497C62.02 31.7937 61.784 31.8657 61.424 31.8657H60.38ZM67.2703 31.6017C67.2223 31.6017 67.1663 31.6017 67.1023 31.6017C67.0463 31.5937 66.9903 31.5857 66.9343 31.5777C66.8783 31.5617 66.8303 31.5457 66.7903 31.5297C66.7503 31.5057 66.7303 31.4777 66.7303 31.4457C66.7303 31.3417 66.7343 31.2457 66.7423 31.1577C66.7503 31.0697 66.7543 30.9777 66.7543 30.8817C66.7543 30.7057 66.7303 30.5617 66.6823 30.4497C66.6343 30.3377 66.5383 30.2817 66.3943 30.2817C66.1703 30.2817 65.9823 30.4297 65.8303 30.7257C65.6863 31.0137 65.5943 31.4497 65.5543 32.0337C65.5383 32.2897 65.5143 32.5817 65.4823 32.9097C65.4583 33.2297 65.4343 33.5417 65.4103 33.8457C65.3863 34.1417 65.3663 34.4057 65.3503 34.6377C65.3343 34.8697 65.3263 35.0217 65.3263 35.0937C65.3263 35.1737 65.2983 35.2337 65.2423 35.2737C65.1863 35.3137 65.1263 35.3337 65.0623 35.3337H64.6303C64.3823 35.3337 64.1783 35.3097 64.0183 35.2617C63.8663 35.2057 63.7423 35.1297 63.6463 35.0337C63.5583 34.9377 63.4943 34.8217 63.4543 34.6857C63.4223 34.5417 63.4063 34.3777 63.4063 34.1937C63.4063 34.0737 63.4103 33.9057 63.4183 33.6897C63.4343 33.4657 63.4583 33.1617 63.4903 32.7777C63.5223 32.3857 63.5583 31.8937 63.5983 31.3017C63.6463 30.7017 63.7023 29.9617 63.7663 29.0817C63.7823 28.8497 63.8663 28.7337 64.0183 28.7337H64.4863C64.7103 28.7337 64.8983 28.7577 65.0503 28.8057C65.2023 28.8537 65.3263 28.9217 65.4223 29.0097C65.5183 29.0897 65.5863 29.1857 65.6263 29.2977C65.6743 29.4097 65.7063 29.5257 65.7223 29.6457C65.8183 29.4617 65.9303 29.3057 66.0583 29.1777C66.1943 29.0417 66.3343 28.9337 66.4783 28.8537C66.6223 28.7657 66.7703 28.7057 66.9223 28.6737C67.0743 28.6337 67.2143 28.6137 67.3423 28.6137C67.4943 28.6137 67.6463 28.6417 67.7983 28.6977C67.9583 28.7537 68.1023 28.8377 68.2303 28.9497C68.3583 29.0617 68.4583 29.2057 68.5303 29.3817C68.6103 29.5577 68.6503 29.7657 68.6503 30.0057C68.6503 30.2217 68.6183 30.4257 68.5543 30.6177C68.4903 30.8097 68.3983 30.9817 68.2783 31.1337C68.1583 31.2777 68.0103 31.3937 67.8343 31.4817C67.6663 31.5617 67.4783 31.6017 67.2703 31.6017ZM70.3725 35.3337C70.1245 35.3337 69.9205 35.3097 69.7605 35.2617C69.6085 35.2057 69.4845 35.1297 69.3885 35.0337C69.3005 34.9377 69.2365 34.8217 69.1965 34.6857C69.1645 34.5417 69.1485 34.3777 69.1485 34.1937C69.1485 34.0737 69.1525 33.9057 69.1605 33.6897C69.1765 33.4657 69.2005 33.1617 69.2325 32.7777C69.2645 32.3857 69.3005 31.8937 69.3405 31.3017C69.3885 30.7017 69.4445 29.9617 69.5085 29.0817C69.5165 28.9057 69.5365 28.8017 69.5685 28.7697C69.5925 28.7457 69.6565 28.7337 69.7605 28.7337H70.2285C70.4765 28.7337 70.6765 28.7577 70.8285 28.8057C70.9885 28.8537 71.1125 28.9257 71.2005 29.0217C71.2965 29.1177 71.3605 29.2337 71.3925 29.3697C71.4325 29.5057 71.4525 29.6577 71.4525 29.8257C71.4525 29.9457 71.4445 30.1257 71.4285 30.3657C71.4125 30.6057 71.3885 30.9337 71.3565 31.3497C71.3325 31.7577 71.2965 32.2697 71.2485 32.8857C71.2005 33.4937 71.1405 34.2297 71.0685 35.0937C71.0605 35.1897 71.0405 35.2537 71.0085 35.2857C70.9765 35.3177 70.9085 35.3337 70.8045 35.3337H70.3725ZM69.5205 27.3177C69.5205 26.9977 69.6365 26.7457 69.8685 26.5617C70.1005 26.3777 70.4125 26.2857 70.8045 26.2857C71.1485 26.2857 71.3965 26.3577 71.5485 26.5017C71.7085 26.6377 71.7885 26.8217 71.7885 27.0537C71.7885 27.3497 71.6765 27.5977 71.4525 27.7977C71.2365 27.9897 70.9165 28.0857 70.4925 28.0857C69.8445 28.0857 69.5205 27.8297 69.5205 27.3177ZM75.2835 35.4537C74.9315 35.4537 74.5795 35.4097 74.2275 35.3217C73.8835 35.2337 73.5715 35.0817 73.2915 34.8657C73.0195 34.6497 72.7955 34.3617 72.6195 34.0017C72.4435 33.6417 72.3555 33.1897 72.3555 32.6457C72.3555 32.4457 72.3715 32.2057 72.4035 31.9257C72.4355 31.6457 72.4955 31.3577 72.5835 31.0617C72.6795 30.7657 72.8075 30.4737 72.9675 30.1857C73.1355 29.8897 73.3515 29.6257 73.6155 29.3937C73.8795 29.1617 74.1995 28.9737 74.5755 28.8297C74.9515 28.6857 75.3995 28.6137 75.9195 28.6137C76.3355 28.6137 76.6875 28.6617 76.9755 28.7577C77.2635 28.8537 77.4955 28.9857 77.6715 29.1537C77.8475 29.3137 77.9755 29.5017 78.0555 29.7177C78.1355 29.9337 78.1755 30.1657 78.1755 30.4137C78.1755 30.7817 78.0995 31.0937 77.9475 31.3497C77.8035 31.6057 77.6115 31.8217 77.3715 31.9977C77.1395 32.1657 76.8795 32.2977 76.5915 32.3937C76.3035 32.4897 76.0195 32.5657 75.7395 32.6217C75.4595 32.6697 75.1995 32.7017 74.9595 32.7177C74.7275 32.7257 74.5475 32.7297 74.4195 32.7297C74.4195 32.8817 74.4395 33.0337 74.4795 33.1857C74.5275 33.3297 74.5955 33.4577 74.6835 33.5697C74.7715 33.6817 74.8875 33.7737 75.0315 33.8457C75.1755 33.9177 75.3515 33.9537 75.5595 33.9537C75.7675 33.9537 75.9275 33.9217 76.0395 33.8577C76.1595 33.7857 76.2555 33.7097 76.3275 33.6297C76.3995 33.5417 76.4595 33.4657 76.5075 33.4017C76.5635 33.3297 76.6355 33.2937 76.7235 33.2937C76.7635 33.2937 76.8315 33.3057 76.9275 33.3297C77.0315 33.3457 77.1355 33.3857 77.2395 33.4497C77.3435 33.5137 77.4355 33.6017 77.5155 33.7137C77.5955 33.8257 77.6355 33.9697 77.6355 34.1457C77.6355 34.3777 77.5635 34.5777 77.4195 34.7457C77.2755 34.9137 77.0875 35.0497 76.8555 35.1537C76.6315 35.2577 76.3795 35.3337 76.0995 35.3817C75.8195 35.4297 75.5475 35.4537 75.2835 35.4537ZM75.5115 30.2097C75.3355 30.2097 75.1835 30.2617 75.0555 30.3657C74.9355 30.4617 74.8315 30.5857 74.7435 30.7377C74.6635 30.8897 74.5995 31.0577 74.5515 31.2417C74.5115 31.4257 74.4795 31.6017 74.4555 31.7697C74.9515 31.7617 75.3515 31.6777 75.6555 31.5177C75.9675 31.3577 76.1235 31.1297 76.1235 30.8337C76.1235 30.6737 76.0715 30.5297 75.9675 30.4017C75.8715 30.2737 75.7195 30.2097 75.5115 30.2097ZM82.9903 34.2777C82.9903 34.1017 83.0023 33.8737 83.0263 33.5937C83.0583 33.3057 83.0863 33.0057 83.1103 32.6937C83.1423 32.3737 83.1703 32.0657 83.1943 31.7697C83.2263 31.4737 83.2423 31.2257 83.2423 31.0257C83.2423 30.8177 83.1903 30.6337 83.0863 30.4737C82.9903 30.3057 82.7983 30.2217 82.5103 30.2217C82.2303 30.2217 81.9983 30.2897 81.8143 30.4257C81.6303 30.5617 81.4743 30.8097 81.3463 31.1697C81.2263 31.5297 81.1263 32.0257 81.0463 32.6577C80.9663 33.2897 80.8903 34.1017 80.8183 35.0937C80.8103 35.1897 80.7903 35.2537 80.7583 35.2857C80.7263 35.3177 80.6583 35.3337 80.5543 35.3337H80.1223C79.8743 35.3337 79.6703 35.3097 79.5103 35.2617C79.3583 35.2057 79.2343 35.1297 79.1383 35.0337C79.0503 34.9377 78.9863 34.8217 78.9463 34.6857C78.9143 34.5417 78.8983 34.3777 78.8983 34.1937C78.8983 34.0737 78.9023 33.9057 78.9103 33.6897C78.9263 33.4657 78.9503 33.1617 78.9823 32.7777C79.0143 32.3857 79.0503 31.8937 79.0903 31.3017C79.1383 30.7017 79.1943 29.9617 79.2583 29.0817C79.2663 28.9057 79.2863 28.8017 79.3183 28.7697C79.3423 28.7457 79.4063 28.7337 79.5103 28.7337H79.9783C80.2183 28.7337 80.4143 28.7617 80.5663 28.8177C80.7263 28.8737 80.8543 28.9497 80.9503 29.0457C81.0463 29.1337 81.1143 29.2417 81.1543 29.3697C81.1943 29.4897 81.2183 29.6137 81.2263 29.7417C81.4743 29.3177 81.7583 29.0257 82.0783 28.8657C82.3983 28.6977 82.7983 28.6137 83.2783 28.6137C83.6143 28.6137 83.9063 28.6497 84.1543 28.7217C84.4023 28.7937 84.6063 28.9177 84.7663 29.0937C84.9343 29.2617 85.0583 29.4857 85.1383 29.7657C85.2183 30.0377 85.2583 30.3777 85.2583 30.7857C85.2583 30.9137 85.2503 31.0977 85.2343 31.3377C85.2183 31.5777 85.1983 31.8417 85.1743 32.1297C85.1503 32.4097 85.1223 32.7057 85.0903 33.0177C85.0663 33.3217 85.0423 33.6057 85.0182 33.8697C84.9943 34.1337 84.9743 34.3657 84.9583 34.5657C84.9423 34.7657 84.9343 34.8977 84.9343 34.9617C84.9343 35.1377 84.9143 35.2457 84.8743 35.2857C84.8343 35.3177 84.7463 35.3337 84.6103 35.3337H84.2263C83.9703 35.3337 83.7623 35.3097 83.6023 35.2617C83.4423 35.2137 83.3183 35.1457 83.2303 35.0577C83.1423 34.9697 83.0783 34.8617 83.0383 34.7337C83.0063 34.5977 82.9903 34.4457 82.9903 34.2777ZM88.5239 35.4537C88.2119 35.4537 87.9119 35.3977 87.6239 35.2857C87.3439 35.1737 87.0959 34.9977 86.8799 34.7577C86.6719 34.5177 86.5039 34.2137 86.3759 33.8457C86.2559 33.4777 86.1959 33.0337 86.1959 32.5137C86.1959 32.2817 86.2119 32.0257 86.2439 31.7457C86.2759 31.4577 86.3319 31.1697 86.4119 30.8817C86.4919 30.5937 86.6039 30.3137 86.7479 30.0417C86.8919 29.7697 87.0719 29.5297 87.2879 29.3217C87.5119 29.1057 87.7759 28.9337 88.0799 28.8057C88.3919 28.6777 88.7559 28.6137 89.1719 28.6137C89.5719 28.6137 89.8919 28.6857 90.1319 28.8297C90.3799 28.9657 90.5359 29.2057 90.5999 29.5497C90.6159 29.2377 90.6319 28.9657 90.6479 28.7337C90.6639 28.5017 90.6759 28.2857 90.6839 28.0857C90.6999 27.8857 90.7159 27.6857 90.7319 27.4857C90.7479 27.2857 90.7639 27.0577 90.7799 26.8017C90.7879 26.6257 90.8079 26.5217 90.8399 26.4897C90.8559 26.4737 90.8759 26.4657 90.8999 26.4657C90.9239 26.4577 90.9679 26.4537 91.0319 26.4537H91.4999C91.7399 26.4537 91.9399 26.4817 92.0999 26.5377C92.2599 26.5937 92.3879 26.6697 92.4839 26.7657C92.5799 26.8617 92.6479 26.9737 92.6879 27.1017C92.7279 27.2217 92.7479 27.3497 92.7479 27.4857C92.7479 27.4857 92.7399 27.5857 92.7239 27.7857C92.7079 27.9857 92.6879 28.2537 92.6639 28.5897C92.6399 28.9177 92.6119 29.2937 92.5799 29.7177C92.5479 30.1417 92.5159 30.5817 92.4839 31.0377C92.4519 31.4857 92.4199 31.9337 92.3879 32.3817C92.3559 32.8217 92.3239 33.2297 92.2919 33.6057C92.2599 33.9737 92.2319 34.2937 92.2079 34.5657C92.1919 34.8297 92.1799 35.0057 92.1719 35.0937C92.1559 35.1897 92.1359 35.2537 92.1119 35.2857C92.0879 35.3177 92.0199 35.3337 91.9079 35.3337H91.4759C91.3079 35.3337 91.1479 35.3217 90.9959 35.2977C90.8519 35.2657 90.7239 35.2177 90.6119 35.1537C90.5079 35.0817 90.4239 34.9897 90.3599 34.8777C90.3039 34.7577 90.2759 34.6057 90.2759 34.4217C90.1319 34.7257 89.9119 34.9737 89.6159 35.1657C89.3279 35.3577 88.9639 35.4537 88.5239 35.4537ZM89.5679 30.2097C89.1599 30.2097 88.8559 30.3897 88.6559 30.7497C88.4639 31.1017 88.3679 31.5777 88.3679 32.1777C88.3679 32.3857 88.3799 32.5897 88.4039 32.7897C88.4359 32.9897 88.4879 33.1697 88.5599 33.3297C88.6319 33.4897 88.7279 33.6177 88.8479 33.7137C88.9759 33.8097 89.1359 33.8577 89.3279 33.8577C89.6719 33.8577 89.9599 33.6897 90.1919 33.3537C90.4239 33.0177 90.5399 32.4897 90.5399 31.7697C90.5399 31.5697 90.5279 31.3777 90.5039 31.1937C90.4799 31.0017 90.4319 30.8337 90.3599 30.6897C90.2879 30.5457 90.1879 30.4297 90.0599 30.3417C89.9319 30.2537 89.7679 30.2097 89.5679 30.2097ZM96.4247 28.6137C97.1047 28.6137 97.6047 28.7497 97.9247 29.0217C98.2447 29.2857 98.4047 29.6257 98.4047 30.0417C98.4047 30.3937 98.2927 30.6617 98.0687 30.8457C97.8527 31.0297 97.5367 31.1217 97.1207 31.1217C97.0087 31.1217 96.9327 31.1097 96.8927 31.0857C96.8527 31.0617 96.8327 31.0177 96.8327 30.9537C96.8327 30.8817 96.8247 30.8017 96.8087 30.7137C96.8007 30.6177 96.7727 30.5297 96.7247 30.4497C96.6847 30.3617 96.6167 30.2897 96.5207 30.2337C96.4327 30.1777 96.3047 30.1497 96.1367 30.1497C95.9127 30.1497 95.7327 30.2057 95.5967 30.3177C95.4607 30.4217 95.3927 30.5537 95.3927 30.7137C95.3927 30.8817 95.4607 31.0177 95.5967 31.1217C95.7407 31.2177 95.9167 31.3097 96.1247 31.3977C96.3407 31.4857 96.5727 31.5777 96.8207 31.6737C97.0687 31.7617 97.2967 31.8817 97.5047 32.0337C97.7207 32.1857 97.8967 32.3777 98.0327 32.6097C98.1767 32.8337 98.2487 33.1257 98.2487 33.4857C98.2487 34.0617 98.0447 34.5337 97.6367 34.9017C97.2287 35.2697 96.6167 35.4537 95.8007 35.4537C95.5767 35.4537 95.3167 35.4337 95.0207 35.3937C94.7327 35.3617 94.4567 35.3097 94.1927 35.2377C93.9287 35.1577 93.7047 35.0537 93.5207 34.9257C93.3447 34.7977 93.2567 34.6377 93.2567 34.4457C93.2567 34.3737 93.2687 34.2857 93.2927 34.1817C93.3247 34.0777 93.3687 33.9777 93.4247 33.8817C93.4887 33.7857 93.5607 33.7057 93.6407 33.6417C93.7287 33.5697 93.8327 33.5337 93.9527 33.5337C94.0487 33.5337 94.1367 33.5577 94.2167 33.6057C94.2967 33.6537 94.3887 33.7057 94.4927 33.7617C94.6047 33.8097 94.7407 33.8577 94.9007 33.9057C95.0607 33.9537 95.2727 33.9777 95.5367 33.9777C95.7367 33.9777 95.9127 33.9537 96.0647 33.9057C96.2247 33.8577 96.3047 33.7497 96.3047 33.5817C96.3047 33.4297 96.2407 33.3097 96.1127 33.2217C95.9847 33.1257 95.8207 33.0377 95.6207 32.9577C95.4287 32.8777 95.2167 32.7937 94.9847 32.7057C94.7607 32.6097 94.5487 32.4857 94.3487 32.3337C94.1567 32.1817 93.9967 31.9897 93.8687 31.7577C93.7407 31.5177 93.6767 31.2097 93.6767 30.8337C93.6767 30.4257 93.7567 30.0817 93.9167 29.8017C94.0847 29.5137 94.2967 29.2817 94.5527 29.1057C94.8167 28.9297 95.1127 28.8057 95.4407 28.7337C95.7687 28.6537 96.0967 28.6137 96.4247 28.6137Z" fill="#ED77D8"/>
</svg>
