<svg width="100" height="39" viewBox="0 0 100 39" fill="none" xmlns="http://www.w3.org/2000/svg">
<rect x="0.5" y="15.3335" width="7.66667" height="7.66667" fill="#FF96CA"/>
<rect x="23.5" y="23.0002" width="7.66667" height="7.66667" transform="rotate(180 23.5 23.0002)" fill="#6941C6"/>
<path d="M8.16663 15.3337L15.8333 7.66699V15.3337L8.16663 23.0003V15.3337Z" fill="#ED77D8"/>
<path d="M15.8334 23.0003L8.16671 30.667L8.16671 23.0003L15.8334 15.3337L15.8334 23.0003Z" fill="#FF96CA"/>
<path d="M0.5 15.3336L15.8333 0.000244141V7.66691L8.16667 15.3336H0.5Z" fill="#7F56D9"/>
<path d="M23.5 23.0004L8.16667 38.3337L8.16667 30.6671L15.8333 23.0004L23.5 23.0004Z" fill="#ED77D8"/>
<path d="M28.9062 8.36743C28.9062 7.62524 29.0898 6.94946 29.457 6.34009C29.832 5.73071 30.332 5.24634 30.957 4.88696C31.5898 4.51978 32.2852 4.33618 33.043 4.33618H41.668V6.79712H33.043C32.5898 6.79712 32.1992 6.95728 31.8711 7.27759C31.543 7.5979 31.3789 7.98462 31.3789 8.43774V9.58618C31.3789 10.0002 31.543 10.3557 31.8711 10.6526C32.1992 10.9495 32.5898 11.0979 33.043 11.0979H38.3516C39.1172 11.0979 39.8125 11.2815 40.4375 11.6487C41.0625 12.0081 41.5586 12.4963 41.9258 13.1135C42.3008 13.7229 42.4883 14.3987 42.4883 15.1409V16.9573C42.4883 17.6995 42.3008 18.3792 41.9258 18.9963C41.5586 19.6057 41.0625 20.094 40.4375 20.4612C39.8125 20.8206 39.1172 21.0002 38.3516 21.0002H28.918V18.5276H38.3516C38.8125 18.5276 39.2031 18.3752 39.5234 18.0706C39.8516 17.7581 40.0156 17.3831 40.0156 16.9456V15.1526C40.0156 14.7151 39.8516 14.3401 39.5234 14.0276C39.2031 13.7151 38.8125 13.5588 38.3516 13.5588H33.043C32.2852 13.5588 31.5898 13.3831 30.957 13.0315C30.332 12.6721 29.832 12.1917 29.457 11.5901C29.0898 10.9885 28.9062 10.3245 28.9062 9.5979V8.36743ZM45.1953 13.219C45.1953 12.4143 45.3906 11.6838 45.7812 11.0276C46.1797 10.3713 46.7109 9.8479 47.375 9.45728C48.0391 9.05884 48.7734 8.85962 49.5781 8.85962H56.3516V21.0002H53.8789V11.3323H49.5781C49.0547 11.3323 48.6055 11.5198 48.2305 11.8948C47.8555 12.262 47.668 12.7112 47.668 13.2424V16.594C47.668 17.1252 47.8555 17.5823 48.2305 17.9651C48.6055 18.3401 49.0547 18.5276 49.5781 18.5276H52.4727V21.0002H49.5781C48.7734 21.0002 48.0391 20.8049 47.375 20.4143C46.7109 20.0159 46.1797 19.4846 45.7812 18.8206C45.3906 18.1565 45.1953 17.4221 45.1953 16.6174V13.219ZM59.1641 4.33618H61.6367V8.85962H65.457C66.3008 8.85962 67.0664 9.05884 67.7539 9.45728C68.4492 9.8479 69 10.3752 69.4062 11.0393C69.8203 11.6956 70.0273 12.426 70.0273 13.2307V21.0002H67.5547V13.2659C67.5547 12.7502 67.3438 12.301 66.9219 11.9182C66.5078 11.5276 66.0195 11.3323 65.457 11.3323H61.6367V21.0002H59.1641V4.33618ZM72.7344 13.219C72.7344 12.4143 72.9297 11.6838 73.3203 11.0276C73.7188 10.3713 74.25 9.8479 74.9141 9.45728C75.5781 9.05884 76.3125 8.85962 77.1172 8.85962H83.8906V21.0002H81.418V11.3323H77.1172C76.5938 11.3323 76.1445 11.5198 75.7695 11.8948C75.3945 12.262 75.207 12.7112 75.207 13.2424V16.594C75.207 17.1252 75.3945 17.5823 75.7695 17.9651C76.1445 18.3401 76.5938 18.5276 77.1172 18.5276H80.0117V21.0002H77.1172C76.3125 21.0002 75.5781 20.8049 74.9141 20.4143C74.25 20.0159 73.7188 19.4846 73.3203 18.8206C72.9297 18.1565 72.7344 17.4221 72.7344 16.6174V13.219ZM86.7031 12.2581C86.7031 11.6331 86.8594 11.0627 87.1719 10.5471C87.4922 10.0315 87.9141 9.62134 88.4375 9.31665C88.9688 9.01196 89.5547 8.85962 90.1953 8.85962H92.9023V11.3206H90.1953C89.9141 11.3206 89.6719 11.4182 89.4688 11.6135C89.2734 11.801 89.1758 12.0315 89.1758 12.3049V21.0002H86.7031V12.2581ZM94.8594 5.55493C94.8594 5.13306 95.0078 4.77368 95.3047 4.47681C95.6016 4.17993 95.9609 4.03149 96.3828 4.03149C96.8047 4.03149 97.1641 4.17993 97.4609 4.47681C97.7578 4.77368 97.9062 5.13306 97.9062 5.55493C97.9062 5.97681 97.7578 6.33618 97.4609 6.63306C97.1641 6.92993 96.8047 7.07837 96.3828 7.07837C95.9609 7.07837 95.6016 6.92993 95.3047 6.63306C95.0078 6.33618 94.8594 5.97681 94.8594 5.55493ZM95.1406 8.85962H97.625V21.0002H95.1406V8.85962Z" fill="#0B0B0B"/>
<path d="M60.38 31.5322L60.152 34.8202C60.144 34.8842 60.136 34.9322 60.128 34.9642C60.128 34.9882 60.092 35.0002 60.02 35.0002H59.36C58.912 35.0002 58.592 34.9122 58.4 34.7362C58.208 34.5602 58.112 34.3082 58.112 33.9802C58.112 33.8202 58.124 33.5482 58.148 33.1642C58.172 32.7722 58.204 32.3282 58.244 31.8322C58.284 31.3362 58.324 30.8122 58.364 30.2602C58.404 29.7082 58.444 29.1882 58.484 28.7002C58.524 28.2122 58.556 27.7842 58.58 27.4162C58.604 27.0482 58.616 26.7962 58.616 26.6602C58.616 26.5402 58.68 26.4802 58.808 26.4802H63.032C63.08 26.4802 63.124 26.4922 63.164 26.5162C63.204 26.5402 63.224 26.5842 63.224 26.6482L63.176 27.3562C63.16 27.5962 63.092 27.7922 62.972 27.9442C62.86 28.0882 62.624 28.1602 62.264 28.1602H60.608L60.488 29.8522H62.192C62.24 29.8522 62.284 29.8642 62.324 29.8882C62.364 29.9122 62.384 29.9562 62.384 30.0202L62.336 30.7282C62.32 30.9682 62.252 31.1642 62.132 31.3162C62.02 31.4602 61.784 31.5322 61.424 31.5322H60.38ZM67.2703 31.2682C67.2223 31.2682 67.1663 31.2682 67.1023 31.2682C67.0463 31.2602 66.9903 31.2522 66.9343 31.2442C66.8783 31.2282 66.8303 31.2122 66.7903 31.1962C66.7503 31.1722 66.7303 31.1442 66.7303 31.1122C66.7303 31.0082 66.7343 30.9122 66.7423 30.8242C66.7503 30.7362 66.7543 30.6442 66.7543 30.5482C66.7543 30.3722 66.7303 30.2282 66.6823 30.1162C66.6343 30.0042 66.5383 29.9482 66.3943 29.9482C66.1703 29.9482 65.9823 30.0962 65.8303 30.3922C65.6863 30.6802 65.5943 31.1162 65.5543 31.7002C65.5383 31.9562 65.5143 32.2482 65.4823 32.5762C65.4583 32.8962 65.4343 33.2082 65.4103 33.5122C65.3863 33.8082 65.3663 34.0722 65.3503 34.3042C65.3343 34.5362 65.3263 34.6882 65.3263 34.7602C65.3263 34.8402 65.2983 34.9002 65.2423 34.9402C65.1863 34.9802 65.1263 35.0002 65.0623 35.0002H64.6303C64.3823 35.0002 64.1783 34.9762 64.0183 34.9282C63.8663 34.8722 63.7423 34.7962 63.6463 34.7002C63.5583 34.6042 63.4943 34.4882 63.4543 34.3522C63.4223 34.2082 63.4063 34.0442 63.4063 33.8602C63.4063 33.7402 63.4103 33.5722 63.4183 33.3562C63.4343 33.1322 63.4583 32.8282 63.4903 32.4442C63.5223 32.0522 63.5583 31.5602 63.5983 30.9682C63.6463 30.3682 63.7023 29.6282 63.7663 28.7482C63.7823 28.5162 63.8663 28.4002 64.0183 28.4002H64.4863C64.7103 28.4002 64.8983 28.4242 65.0503 28.4722C65.2023 28.5202 65.3263 28.5882 65.4223 28.6762C65.5183 28.7562 65.5863 28.8522 65.6263 28.9642C65.6743 29.0762 65.7063 29.1922 65.7223 29.3122C65.8183 29.1282 65.9303 28.9722 66.0583 28.8442C66.1943 28.7082 66.3343 28.6002 66.4783 28.5202C66.6223 28.4322 66.7703 28.3722 66.9223 28.3402C67.0743 28.3002 67.2143 28.2802 67.3423 28.2802C67.4943 28.2802 67.6463 28.3082 67.7983 28.3642C67.9583 28.4202 68.1023 28.5042 68.2303 28.6162C68.3583 28.7282 68.4583 28.8722 68.5303 29.0482C68.6103 29.2242 68.6503 29.4322 68.6503 29.6722C68.6503 29.8882 68.6183 30.0922 68.5543 30.2842C68.4903 30.4762 68.3983 30.6482 68.2783 30.8002C68.1583 30.9442 68.0103 31.0602 67.8343 31.1482C67.6663 31.2282 67.4783 31.2682 67.2703 31.2682ZM70.3725 35.0002C70.1245 35.0002 69.9205 34.9762 69.7605 34.9282C69.6085 34.8722 69.4845 34.7962 69.3885 34.7002C69.3005 34.6042 69.2365 34.4882 69.1965 34.3522C69.1645 34.2082 69.1485 34.0442 69.1485 33.8602C69.1485 33.7402 69.1525 33.5722 69.1605 33.3562C69.1765 33.1322 69.2005 32.8282 69.2325 32.4442C69.2645 32.0522 69.3005 31.5602 69.3405 30.9682C69.3885 30.3682 69.4445 29.6282 69.5085 28.7482C69.5165 28.5722 69.5365 28.4682 69.5685 28.4362C69.5925 28.4122 69.6565 28.4002 69.7605 28.4002H70.2285C70.4765 28.4002 70.6765 28.4242 70.8285 28.4722C70.9885 28.5202 71.1125 28.5922 71.2005 28.6882C71.2965 28.7842 71.3605 28.9002 71.3925 29.0362C71.4325 29.1722 71.4525 29.3242 71.4525 29.4922C71.4525 29.6122 71.4445 29.7922 71.4285 30.0322C71.4125 30.2722 71.3885 30.6002 71.3565 31.0162C71.3325 31.4242 71.2965 31.9362 71.2485 32.5522C71.2005 33.1602 71.1405 33.8962 71.0685 34.7602C71.0605 34.8562 71.0405 34.9202 71.0085 34.9522C70.9765 34.9842 70.9085 35.0002 70.8045 35.0002H70.3725ZM69.5205 26.9842C69.5205 26.6642 69.6365 26.4122 69.8685 26.2282C70.1005 26.0442 70.4125 25.9522 70.8045 25.9522C71.1485 25.9522 71.3965 26.0242 71.5485 26.1682C71.7085 26.3042 71.7885 26.4882 71.7885 26.7202C71.7885 27.0162 71.6765 27.2642 71.4525 27.4642C71.2365 27.6562 70.9165 27.7522 70.4925 27.7522C69.8445 27.7522 69.5205 27.4962 69.5205 26.9842ZM75.2835 35.1202C74.9315 35.1202 74.5795 35.0762 74.2275 34.9882C73.8835 34.9002 73.5715 34.7482 73.2915 34.5322C73.0195 34.3162 72.7955 34.0282 72.6195 33.6682C72.4435 33.3082 72.3555 32.8562 72.3555 32.3122C72.3555 32.1122 72.3715 31.8722 72.4035 31.5922C72.4355 31.3122 72.4955 31.0242 72.5835 30.7282C72.6795 30.4322 72.8075 30.1402 72.9675 29.8522C73.1355 29.5562 73.3515 29.2922 73.6155 29.0602C73.8795 28.8282 74.1995 28.6402 74.5755 28.4962C74.9515 28.3522 75.3995 28.2802 75.9195 28.2802C76.3355 28.2802 76.6875 28.3282 76.9755 28.4242C77.2635 28.5202 77.4955 28.6522 77.6715 28.8202C77.8475 28.9802 77.9755 29.1682 78.0555 29.3842C78.1355 29.6002 78.1755 29.8322 78.1755 30.0802C78.1755 30.4482 78.0995 30.7602 77.9475 31.0162C77.8035 31.2722 77.6115 31.4882 77.3715 31.6642C77.1395 31.8322 76.8795 31.9642 76.5915 32.0602C76.3035 32.1562 76.0195 32.2322 75.7395 32.2882C75.4595 32.3362 75.1995 32.3682 74.9595 32.3842C74.7275 32.3922 74.5475 32.3962 74.4195 32.3962C74.4195 32.5482 74.4395 32.7002 74.4795 32.8522C74.5275 32.9962 74.5955 33.1242 74.6835 33.2362C74.7715 33.3482 74.8875 33.4402 75.0315 33.5122C75.1755 33.5842 75.3515 33.6202 75.5595 33.6202C75.7675 33.6202 75.9275 33.5882 76.0395 33.5242C76.1595 33.4522 76.2555 33.3762 76.3275 33.2962C76.3995 33.2082 76.4595 33.1322 76.5075 33.0682C76.5635 32.9962 76.6355 32.9602 76.7235 32.9602C76.7635 32.9602 76.8315 32.9722 76.9275 32.9962C77.0315 33.0122 77.1355 33.0522 77.2395 33.1162C77.3435 33.1802 77.4355 33.2682 77.5155 33.3802C77.5955 33.4922 77.6355 33.6362 77.6355 33.8122C77.6355 34.0442 77.5635 34.2442 77.4195 34.4122C77.2755 34.5802 77.0875 34.7162 76.8555 34.8202C76.6315 34.9242 76.3795 35.0002 76.0995 35.0482C75.8195 35.0962 75.5475 35.1202 75.2835 35.1202ZM75.5115 29.8762C75.3355 29.8762 75.1835 29.9282 75.0555 30.0322C74.9355 30.1282 74.8315 30.2522 74.7435 30.4042C74.6635 30.5562 74.5995 30.7242 74.5515 30.9082C74.5115 31.0922 74.4795 31.2682 74.4555 31.4362C74.9515 31.4282 75.3515 31.3442 75.6555 31.1842C75.9675 31.0242 76.1235 30.7962 76.1235 30.5002C76.1235 30.3402 76.0715 30.1962 75.9675 30.0682C75.8715 29.9402 75.7195 29.8762 75.5115 29.8762ZM82.9903 33.9442C82.9903 33.7682 83.0023 33.5402 83.0263 33.2602C83.0583 32.9722 83.0863 32.6722 83.1103 32.3602C83.1423 32.0402 83.1703 31.7322 83.1943 31.4362C83.2263 31.1402 83.2423 30.8922 83.2423 30.6922C83.2423 30.4842 83.1903 30.3002 83.0863 30.1402C82.9903 29.9722 82.7983 29.8882 82.5103 29.8882C82.2303 29.8882 81.9983 29.9562 81.8143 30.0922C81.6303 30.2282 81.4743 30.4762 81.3463 30.8362C81.2263 31.1962 81.1263 31.6922 81.0463 32.3242C80.9663 32.9562 80.8903 33.7682 80.8183 34.7602C80.8103 34.8562 80.7903 34.9202 80.7583 34.9522C80.7263 34.9842 80.6583 35.0002 80.5543 35.0002H80.1223C79.8743 35.0002 79.6703 34.9762 79.5103 34.9282C79.3583 34.8722 79.2343 34.7962 79.1383 34.7002C79.0503 34.6042 78.9863 34.4882 78.9463 34.3522C78.9143 34.2082 78.8983 34.0442 78.8983 33.8602C78.8983 33.7402 78.9023 33.5722 78.9103 33.3562C78.9263 33.1322 78.9503 32.8282 78.9823 32.4442C79.0143 32.0522 79.0503 31.5602 79.0903 30.9682C79.1383 30.3682 79.1943 29.6282 79.2583 28.7482C79.2663 28.5722 79.2863 28.4682 79.3183 28.4362C79.3423 28.4122 79.4063 28.4002 79.5103 28.4002H79.9783C80.2183 28.4002 80.4143 28.4282 80.5663 28.4842C80.7263 28.5402 80.8543 28.6162 80.9503 28.7122C81.0463 28.8002 81.1143 28.9082 81.1543 29.0362C81.1943 29.1562 81.2183 29.2802 81.2263 29.4082C81.4743 28.9842 81.7583 28.6922 82.0783 28.5322C82.3983 28.3642 82.7983 28.2802 83.2783 28.2802C83.6143 28.2802 83.9063 28.3162 84.1543 28.3882C84.4023 28.4602 84.6063 28.5842 84.7663 28.7602C84.9343 28.9282 85.0583 29.1522 85.1383 29.4322C85.2183 29.7042 85.2583 30.0442 85.2583 30.4522C85.2583 30.5802 85.2503 30.7642 85.2343 31.0042C85.2183 31.2442 85.1983 31.5082 85.1743 31.7962C85.1503 32.0762 85.1223 32.3722 85.0903 32.6842C85.0663 32.9882 85.0423 33.2722 85.0182 33.5362C84.9943 33.8002 84.9743 34.0322 84.9583 34.2322C84.9423 34.4322 84.9343 34.5642 84.9343 34.6282C84.9343 34.8042 84.9143 34.9122 84.8743 34.9522C84.8343 34.9842 84.7463 35.0002 84.6103 35.0002H84.2263C83.9703 35.0002 83.7623 34.9762 83.6023 34.9282C83.4423 34.8802 83.3183 34.8122 83.2303 34.7242C83.1423 34.6362 83.0783 34.5282 83.0383 34.4002C83.0063 34.2642 82.9903 34.1122 82.9903 33.9442ZM88.5239 35.1202C88.2119 35.1202 87.9119 35.0642 87.6239 34.9522C87.3439 34.8402 87.0959 34.6642 86.8799 34.4242C86.6719 34.1842 86.5039 33.8802 86.3759 33.5122C86.2559 33.1442 86.1959 32.7002 86.1959 32.1802C86.1959 31.9482 86.2119 31.6922 86.2439 31.4122C86.2759 31.1242 86.3319 30.8362 86.4119 30.5482C86.4919 30.2602 86.6039 29.9802 86.7479 29.7082C86.8919 29.4362 87.0719 29.1962 87.2879 28.9882C87.5119 28.7722 87.7759 28.6002 88.0799 28.4722C88.3919 28.3442 88.7559 28.2802 89.1719 28.2802C89.5719 28.2802 89.8919 28.3522 90.1319 28.4962C90.3799 28.6322 90.5359 28.8722 90.5999 29.2162C90.6159 28.9042 90.6319 28.6322 90.6479 28.4002C90.6639 28.1682 90.6759 27.9522 90.6839 27.7522C90.6999 27.5522 90.7159 27.3522 90.7319 27.1522C90.7479 26.9522 90.7639 26.7242 90.7799 26.4682C90.7879 26.2922 90.8079 26.1882 90.8399 26.1562C90.8559 26.1402 90.8759 26.1322 90.8999 26.1322C90.9239 26.1242 90.9679 26.1202 91.0319 26.1202H91.4999C91.7399 26.1202 91.9399 26.1482 92.0999 26.2042C92.2599 26.2602 92.3879 26.3362 92.4839 26.4322C92.5799 26.5282 92.6479 26.6402 92.6879 26.7682C92.7279 26.8882 92.7479 27.0162 92.7479 27.1522C92.7479 27.1522 92.7399 27.2522 92.7239 27.4522C92.7079 27.6522 92.6879 27.9202 92.6639 28.2562C92.6399 28.5842 92.6119 28.9602 92.5799 29.3842C92.5479 29.8082 92.5159 30.2482 92.4839 30.7042C92.4519 31.1522 92.4199 31.6002 92.3879 32.0482C92.3559 32.4882 92.3239 32.8962 92.2919 33.2722C92.2599 33.6402 92.2319 33.9602 92.2079 34.2322C92.1919 34.4962 92.1799 34.6722 92.1719 34.7602C92.1559 34.8562 92.1359 34.9202 92.1119 34.9522C92.0879 34.9842 92.0199 35.0002 91.9079 35.0002H91.4759C91.3079 35.0002 91.1479 34.9882 90.9959 34.9642C90.8519 34.9322 90.7239 34.8842 90.6119 34.8202C90.5079 34.7482 90.4239 34.6562 90.3599 34.5442C90.3039 34.4242 90.2759 34.2722 90.2759 34.0882C90.1319 34.3922 89.9119 34.6402 89.6159 34.8322C89.3279 35.0242 88.9639 35.1202 88.5239 35.1202ZM89.5679 29.8762C89.1599 29.8762 88.8559 30.0562 88.6559 30.4162C88.4639 30.7682 88.3679 31.2442 88.3679 31.8442C88.3679 32.0522 88.3799 32.2562 88.4039 32.4562C88.4359 32.6562 88.4879 32.8362 88.5599 32.9962C88.6319 33.1562 88.7279 33.2842 88.8479 33.3802C88.9759 33.4762 89.1359 33.5242 89.3279 33.5242C89.6719 33.5242 89.9599 33.3562 90.1919 33.0202C90.4239 32.6842 90.5399 32.1562 90.5399 31.4362C90.5399 31.2362 90.5279 31.0442 90.5039 30.8602C90.4799 30.6682 90.4319 30.5002 90.3599 30.3562C90.2879 30.2122 90.1879 30.0962 90.0599 30.0082C89.9319 29.9202 89.7679 29.8762 89.5679 29.8762ZM96.4247 28.2802C97.1047 28.2802 97.6047 28.4162 97.9247 28.6882C98.2447 28.9522 98.4047 29.2922 98.4047 29.7082C98.4047 30.0602 98.2927 30.3282 98.0687 30.5122C97.8527 30.6962 97.5367 30.7882 97.1207 30.7882C97.0087 30.7882 96.9327 30.7762 96.8927 30.7522C96.8527 30.7282 96.8327 30.6842 96.8327 30.6202C96.8327 30.5482 96.8247 30.4682 96.8087 30.3802C96.8007 30.2842 96.7727 30.1962 96.7247 30.1162C96.6847 30.0282 96.6167 29.9562 96.5207 29.9002C96.4327 29.8442 96.3047 29.8162 96.1367 29.8162C95.9127 29.8162 95.7327 29.8722 95.5967 29.9842C95.4607 30.0882 95.3927 30.2202 95.3927 30.3802C95.3927 30.5482 95.4607 30.6842 95.5967 30.7882C95.7407 30.8842 95.9167 30.9762 96.1247 31.0642C96.3407 31.1522 96.5727 31.2442 96.8207 31.3402C97.0687 31.4282 97.2967 31.5482 97.5047 31.7002C97.7207 31.8522 97.8967 32.0442 98.0327 32.2762C98.1767 32.5002 98.2487 32.7922 98.2487 33.1522C98.2487 33.7282 98.0447 34.2002 97.6367 34.5682C97.2287 34.9362 96.6167 35.1202 95.8007 35.1202C95.5767 35.1202 95.3167 35.1002 95.0207 35.0602C94.7327 35.0282 94.4567 34.9762 94.1927 34.9042C93.9287 34.8242 93.7047 34.7202 93.5207 34.5922C93.3447 34.4642 93.2567 34.3042 93.2567 34.1122C93.2567 34.0402 93.2687 33.9522 93.2927 33.8482C93.3247 33.7442 93.3687 33.6442 93.4247 33.5482C93.4887 33.4522 93.5607 33.3722 93.6407 33.3082C93.7287 33.2362 93.8327 33.2002 93.9527 33.2002C94.0487 33.2002 94.1367 33.2242 94.2167 33.2722C94.2967 33.3202 94.3887 33.3722 94.4927 33.4282C94.6047 33.4762 94.7407 33.5242 94.9007 33.5722C95.0607 33.6202 95.2727 33.6442 95.5367 33.6442C95.7367 33.6442 95.9127 33.6202 96.0647 33.5722C96.2247 33.5242 96.3047 33.4162 96.3047 33.2482C96.3047 33.0962 96.2407 32.9762 96.1127 32.8882C95.9847 32.7922 95.8207 32.7042 95.6207 32.6242C95.4287 32.5442 95.2167 32.4602 94.9847 32.3722C94.7607 32.2762 94.5487 32.1522 94.3487 32.0002C94.1567 31.8482 93.9967 31.6562 93.8687 31.4242C93.7407 31.1842 93.6767 30.8762 93.6767 30.5002C93.6767 30.0922 93.7567 29.7482 93.9167 29.4682C94.0847 29.1802 94.2967 28.9482 94.5527 28.7722C94.8167 28.5962 95.1127 28.4722 95.4407 28.4002C95.7687 28.3202 96.0967 28.2802 96.4247 28.2802Z" fill="#ED77D8"/>
</svg>
