<svg width="100" height="39" viewBox="0 0 100 39" fill="none" xmlns="http://www.w3.org/2000/svg">
<rect x="0.5" y="15.3335" width="7.66667" height="7.66667" fill="#B692F6"/>
<rect x="23.5" y="23.0002" width="7.66667" height="7.66667" transform="rotate(180 23.5 23.0002)" fill="#6941C6"/>
<path d="M8.16663 15.3337L15.8333 7.66699V15.3337L8.16663 23.0003V15.3337Z" fill="#D6BBFB"/>
<path d="M15.8334 23.0003L8.16671 30.667L8.16671 23.0003L15.8334 15.3337L15.8334 23.0003Z" fill="#B692F6"/>
<path d="M0.5 15.3336L15.8333 0.000244141V7.66691L8.16667 15.3336H0.5Z" fill="#7F56D9"/>
<path d="M23.5 23.0004L8.16667 38.3337L8.16667 30.6671L15.8333 23.0004L23.5 23.0004Z" fill="#9E77ED"/>
<path d="M28.9062 8.36743C28.9062 7.62524 29.0898 6.94946 29.457 6.34009C29.832 5.73071 30.332 5.24634 30.957 4.88696C31.5898 4.51978 32.2852 4.33618 33.043 4.33618H41.668V6.79712H33.043C32.5898 6.79712 32.1992 6.95728 31.8711 7.27759C31.543 7.5979 31.3789 7.98462 31.3789 8.43774V9.58618C31.3789 10.0002 31.543 10.3557 31.8711 10.6526C32.1992 10.9495 32.5898 11.0979 33.043 11.0979H38.3516C39.1172 11.0979 39.8125 11.2815 40.4375 11.6487C41.0625 12.0081 41.5586 12.4963 41.9258 13.1135C42.3008 13.7229 42.4883 14.3987 42.4883 15.1409V16.9573C42.4883 17.6995 42.3008 18.3792 41.9258 18.9963C41.5586 19.6057 41.0625 20.094 40.4375 20.4612C39.8125 20.8206 39.1172 21.0002 38.3516 21.0002H28.918V18.5276H38.3516C38.8125 18.5276 39.2031 18.3752 39.5234 18.0706C39.8516 17.7581 40.0156 17.3831 40.0156 16.9456V15.1526C40.0156 14.7151 39.8516 14.3401 39.5234 14.0276C39.2031 13.7151 38.8125 13.5588 38.3516 13.5588H33.043C32.2852 13.5588 31.5898 13.3831 30.957 13.0315C30.332 12.6721 29.832 12.1917 29.457 11.5901C29.0898 10.9885 28.9062 10.3245 28.9062 9.5979V8.36743ZM45.1953 13.219C45.1953 12.4143 45.3906 11.6838 45.7812 11.0276C46.1797 10.3713 46.7109 9.8479 47.375 9.45728C48.0391 9.05884 48.7734 8.85962 49.5781 8.85962H56.3516V21.0002H53.8789V11.3323H49.5781C49.0547 11.3323 48.6055 11.5198 48.2305 11.8948C47.8555 12.262 47.668 12.7112 47.668 13.2424V16.594C47.668 17.1252 47.8555 17.5823 48.2305 17.9651C48.6055 18.3401 49.0547 18.5276 49.5781 18.5276H52.4727V21.0002H49.5781C48.7734 21.0002 48.0391 20.8049 47.375 20.4143C46.7109 20.0159 46.1797 19.4846 45.7812 18.8206C45.3906 18.1565 45.1953 17.4221 45.1953 16.6174V13.219ZM59.1641 4.33618H61.6367V8.85962H65.457C66.3008 8.85962 67.0664 9.05884 67.7539 9.45728C68.4492 9.8479 69 10.3752 69.4062 11.0393C69.8203 11.6956 70.0273 12.426 70.0273 13.2307V21.0002H67.5547V13.2659C67.5547 12.7502 67.3438 12.301 66.9219 11.9182C66.5078 11.5276 66.0195 11.3323 65.457 11.3323H61.6367V21.0002H59.1641V4.33618ZM72.7344 13.219C72.7344 12.4143 72.9297 11.6838 73.3203 11.0276C73.7188 10.3713 74.25 9.8479 74.9141 9.45728C75.5781 9.05884 76.3125 8.85962 77.1172 8.85962H83.8906V21.0002H81.418V11.3323H77.1172C76.5938 11.3323 76.1445 11.5198 75.7695 11.8948C75.3945 12.262 75.207 12.7112 75.207 13.2424V16.594C75.207 17.1252 75.3945 17.5823 75.7695 17.9651C76.1445 18.3401 76.5938 18.5276 77.1172 18.5276H80.0117V21.0002H77.1172C76.3125 21.0002 75.5781 20.8049 74.9141 20.4143C74.25 20.0159 73.7188 19.4846 73.3203 18.8206C72.9297 18.1565 72.7344 17.4221 72.7344 16.6174V13.219ZM86.7031 12.2581C86.7031 11.6331 86.8594 11.0627 87.1719 10.5471C87.4922 10.0315 87.9141 9.62134 88.4375 9.31665C88.9688 9.01196 89.5547 8.85962 90.1953 8.85962H92.9023V11.3206H90.1953C89.9141 11.3206 89.6719 11.4182 89.4688 11.6135C89.2734 11.801 89.1758 12.0315 89.1758 12.3049V21.0002H86.7031V12.2581ZM94.8594 5.55493C94.8594 5.13306 95.0078 4.77368 95.3047 4.47681C95.6016 4.17993 95.9609 4.03149 96.3828 4.03149C96.8047 4.03149 97.1641 4.17993 97.4609 4.47681C97.7578 4.77368 97.9062 5.13306 97.9062 5.55493C97.9062 5.97681 97.7578 6.33618 97.4609 6.63306C97.1641 6.92993 96.8047 7.07837 96.3828 7.07837C95.9609 7.07837 95.6016 6.92993 95.3047 6.63306C95.0078 6.33618 94.8594 5.97681 94.8594 5.55493ZM95.1406 8.85962H97.625V21.0002H95.1406V8.85962Z" fill="#FBFBFB"/>
</svg>
