<svg width="158" height="61" viewBox="0 0 158 61" fill="none" xmlns="http://www.w3.org/2000/svg">
<rect y="24.4" width="12.2" height="12.2" fill="#B692F6"/>
<rect x="36.5999" y="36.6001" width="12.2" height="12.2" transform="rotate(180 36.5999 36.6001)" fill="#6941C6"/>
<path d="M12.2 24.3999L24.4 12.2V24.3999L12.2 36.5999V24.3999Z" fill="#D6BBFB"/>
<path d="M24.3999 36.5998L12.1999 48.7998L12.1999 36.5998L24.3999 24.3999L24.3999 36.5998Z" fill="#B692F6"/>
<path d="M0 24.3999L24.3999 0V12.2L12.2 24.3999H0Z" fill="#7F56D9"/>
<path d="M36.5999 36.6001L12.2 61L12.2 48.8L24.4 36.6001L36.5999 36.6001Z" fill="#9E77ED"/>
<path d="M45.2266 23.998C45.2266 22.8229 45.5173 21.7529 46.0986 20.7881C46.6924 19.8232 47.484 19.0563 48.4736 18.4873C49.4756 17.9059 50.5765 17.6152 51.7764 17.6152H65.4326V21.5117H51.7764C51.0589 21.5117 50.4404 21.7653 49.9209 22.2725C49.4014 22.7796 49.1416 23.3919 49.1416 24.1094V25.9277C49.1416 26.5833 49.4014 27.1462 49.9209 27.6162C50.4404 28.0863 51.0589 28.3213 51.7764 28.3213H60.1816C61.3939 28.3213 62.4948 28.612 63.4844 29.1934C64.474 29.7624 65.2594 30.5355 65.8408 31.5127C66.4346 32.4775 66.7314 33.5475 66.7314 34.7227V37.5986C66.7314 38.7738 66.4346 39.8499 65.8408 40.8271C65.2594 41.792 64.474 42.5651 63.4844 43.1465C62.4948 43.7155 61.3939 44 60.1816 44H45.2451V40.085H60.1816C60.9115 40.085 61.5299 39.8438 62.0371 39.3613C62.5566 38.8665 62.8164 38.2728 62.8164 37.5801V34.7412C62.8164 34.0485 62.5566 33.4548 62.0371 32.96C61.5299 32.4652 60.9115 32.2178 60.1816 32.2178H51.7764C50.5765 32.2178 49.4756 31.9395 48.4736 31.3828C47.484 30.8138 46.6924 30.0531 46.0986 29.1006C45.5173 28.1481 45.2266 27.0967 45.2266 25.9463V23.998ZM71.0176 31.6797C71.0176 30.4056 71.3268 29.249 71.9453 28.21C72.5762 27.1709 73.4173 26.3421 74.4688 25.7236C75.5202 25.0928 76.6829 24.7773 77.957 24.7773H88.6816V44H84.7666V28.6924H77.957C77.1283 28.6924 76.417 28.9893 75.8232 29.583C75.2295 30.1644 74.9326 30.8757 74.9326 31.7168V37.0234C74.9326 37.8646 75.2295 38.5882 75.8232 39.1943C76.417 39.7881 77.1283 40.085 77.957 40.085H82.54V44H77.957C76.6829 44 75.5202 43.6908 74.4688 43.0723C73.4173 42.4414 72.5762 41.6003 71.9453 40.5488C71.3268 39.4974 71.0176 38.3346 71.0176 37.0605V31.6797ZM93.1348 17.6152H97.0498V24.7773H103.099C104.435 24.7773 105.647 25.0928 106.735 25.7236C107.836 26.3421 108.708 27.1771 109.352 28.2285C110.007 29.2676 110.335 30.4242 110.335 31.6982V44H106.42V31.7539C106.42 30.9375 106.086 30.2262 105.418 29.6201C104.762 29.0016 103.989 28.6924 103.099 28.6924H97.0498V44H93.1348V17.6152ZM114.621 31.6797C114.621 30.4056 114.93 29.249 115.549 28.21C116.18 27.1709 117.021 26.3421 118.072 25.7236C119.124 25.0928 120.286 24.7773 121.561 24.7773H132.285V44H128.37V28.6924H121.561C120.732 28.6924 120.021 28.9893 119.427 29.583C118.833 30.1644 118.536 30.8757 118.536 31.7168V37.0234C118.536 37.8646 118.833 38.5882 119.427 39.1943C120.021 39.7881 120.732 40.085 121.561 40.085H126.144V44H121.561C120.286 44 119.124 43.6908 118.072 43.0723C117.021 42.4414 116.18 41.6003 115.549 40.5488C114.93 39.4974 114.621 38.3346 114.621 37.0605V31.6797ZM136.738 30.1582C136.738 29.1686 136.986 28.2656 137.48 27.4492C137.988 26.6328 138.656 25.9834 139.484 25.501C140.326 25.0186 141.253 24.7773 142.268 24.7773H146.554V28.6738H142.268C141.822 28.6738 141.439 28.8285 141.117 29.1377C140.808 29.4346 140.653 29.7995 140.653 30.2324V44H136.738V30.1582ZM149.652 19.5449C149.652 18.877 149.887 18.3079 150.357 17.8379C150.827 17.3678 151.396 17.1328 152.064 17.1328C152.732 17.1328 153.301 17.3678 153.771 17.8379C154.242 18.3079 154.477 18.877 154.477 19.5449C154.477 20.2129 154.242 20.7819 153.771 21.252C153.301 21.722 152.732 21.957 152.064 21.957C151.396 21.957 150.827 21.722 150.357 21.252C149.887 20.7819 149.652 20.2129 149.652 19.5449ZM150.098 24.7773H154.031V44H150.098V24.7773Z" fill="#6941C6"/>
</svg>
